<svg xmlns="http://www.w3.org/2000/svg" width="512" height="512" viewBox="0 0 512 512"><g><radialGradient id="a" cx="256" cy="256" r="256" gradientUnits="userSpaceOnUse"><stop offset="0" stop-color="#04be9e"/><stop offset="1" stop-color="#00a185"/></radialGradient><circle fill="url(#a)" cx="256" cy="256" r="256"/><path fill="#EC7C2D" d="M123.829 275.715c-2.141 4.051-.579 9.115 3.472 11.254l83.945 44.365c4.05 2.139 9.115.576 11.255-3.475l4.28-8.1-98.672-52.145-4.28 8.101z"/><path fill="#D9521E" d="M306.945 168.07c2.141-4.051.578-9.113-3.472-11.256l-83.944-44.361c-4.051-2.141-9.115-.578-11.255 3.473l-4.28 8.098 98.672 52.148 4.279-8.102z"/><path fill="#32485D" d="M172.496 215.711L156.54 245.9c-2.14 4.051-7.638 7.443-12.218 7.539l-.492.01c-4.581.096-10.078 3.488-12.219 7.539l-3.502 6.627 98.672 52.145 3.502-6.627c2.141-4.049 1.846-10.504-.654-14.34l-.27-.414c-2.501-3.838-2.796-10.291-.655-14.34l15.955-30.191.31-.586 160.648 100.742c7.762 4.867 17.614 2.221 21.896-5.877l5.643-10.678-181.882-96.119-16.911-8.938-55.252-29.201-6.615 12.52z"/><path fill="#32485D" d="M200.49 130.652c-2.141 4.051-1.845 10.504.656 14.342l.27.412c2.5 3.838 2.795 10.291.655 14.342l-15.956 30.189-7.004 13.254 55.252 29.201 16.911 8.938 181.881 96.119 6.032-11.414c4.279-8.1.914-17.73-7.48-21.4L257.969 228.66l.311-.584 15.954-30.191c2.142-4.051 7.64-7.443 12.218-7.539l.494-.01c4.579-.096 10.078-3.488 12.218-7.537l3.503-6.627-98.672-52.148-3.505 6.628z"/><path fill="#2A3E4E" d="M200.49 130.652c-2.141 4.051-1.845 10.504.656 14.342l.27.412c2.5 3.838 2.795 10.291.655 14.342l-15.956 30.189-7.004 13.254 55.252 29.201 16.911 8.938 181.881 96.119 6.032-11.414c4.279-8.1.914-17.73-7.48-21.4L257.969 228.66l.311-.584 15.954-30.191c2.142-4.051 7.64-7.443 12.218-7.539l.494-.01c4.579-.096 10.078-3.488 12.218-7.537l3.503-6.627-98.672-52.148-3.505 6.628z"/><path fill="#F4C342" d="M211.906 169.654l-21.013 39.764-21.014 39.764 48.6 25.685 21.014-39.763 21.013-39.764z"/><path fill="#F79B35" d="M260.52 195.338L239.506 235.1l-48.6-25.682 21.013-39.762z"/><path fill="#EC7C2D" d="M243.373 357H111.516c-5.002 0-8.516 3.404-8.516 8.406v4.547c0 5.002 3.514 10.047 8.516 10.047h131.857c5.002 0 9.627-5.045 9.627-10.047v-4.547c0-5.002-4.625-8.406-9.627-8.406z"/><path fill="#32485D" d="M283.297 393.546l-7.098-15.282c-3.05-3.965-9.637-7.264-14.639-7.264H94.238c-5.002 0-11.59 3.175-14.639 7.14l-7.098 15.442c-3.05 3.963-1.453 7.418 3.549 7.418h203.698c5.001 0 6.598-3.489 3.549-7.454z"/><path fill="#D9521E" d="M243.373 357H178v23h65.373c5.002 0 9.627-5.045 9.627-10.047v-4.547c0-5.002-4.625-8.406-9.627-8.406z"/><path fill="#2A3E4E" d="M283.297 393.546l-7.098-15.282c-3.05-3.965-9.637-7.264-14.639-7.264H178v30h101.748c5.001 0 6.598-3.489 3.549-7.454z"/></g></svg>