<svg xmlns="http://www.w3.org/2000/svg" width="512" height="512" viewBox="0 0 512 512"><g><radialGradient id="a" cx="256" cy="256" r="256" gradientUnits="userSpaceOnUse"><stop offset=".005" stop-color="#95a5a6"/><stop offset="1" stop-color="#7f8c8d"/></radialGradient><circle fill="url(#a)" cx="256" cy="256" r="256"/><path fill="#32485D" d="M377 110c0-5.522-3.477-9-9-9H133c-5.523 0-11 3.478-11 9v127h255V110z"/><path fill="#2A3E4E" d="M377 124c0-5.522-3.477-9-9-9H133c-5.523 0-11 3.478-11 9v127h255V124z"/><path fill="#32485D" d="M122 219v182c0 5.522 5.477 11 11 11h235c5.523 0 9-5.478 9-11V219H122z"/><path fill="#EE483C" d="M362 375c0 5.523-4.477 10-10 10h-42c-5.523 0-10-4.477-10-10V256c0-5.523 4.477-10 10-10h42c5.523 0 10 4.477 10 10v119z"/><path fill="#ECF0F1" d="M210 298c0 5.523-4.477 10-10 10h-42c-5.523 0-10-4.477-10-10v-42c0-5.523 4.477-10 10-10h42c5.523 0 10 4.477 10 10v42zM210 375c0 5.523-4.477 10-10 10h-42c-5.523 0-10-4.477-10-10v-42c0-5.523 4.477-10 10-10h42c5.523 0 10 4.477 10 10v42zM286 298c0 5.523-4.477 10-10 10h-42c-5.523 0-10-4.477-10-10v-42c0-5.523 4.477-10 10-10h42c5.523 0 10 4.477 10 10v42zM286 375c0 5.523-4.477 10-10 10h-42c-5.523 0-10-4.477-10-10v-42c0-5.523 4.477-10 10-10h42c5.523 0 10 4.477 10 10v42z"/><path fill="#2CBD9F" d="M359 193c0 5.523-4.477 10-10 10H150c-5.523 0-10-4.477-10-10v-52c0-5.523 4.477-10 10-10h199c5.523 0 10 4.477 10 10v52z"/><path fill="#BDC3C7" d="M201 246h-22v62h22c5.523 0 9-5.478 9-11v-42c0-5.522-3.477-9-9-9zM201 385c5.523 0 9-5.478 9-11v-42c0-5.522-3.477-9-9-9h-22v62h22zM286 297v-42c0-5.522-3.477-9-9-9h-22v62h22c5.523 0 9-5.478 9-11zM277 385c5.523 0 9-5.478 9-11v-42c0-5.522-3.477-9-9-9h-22v62h22z"/><path fill="#C6352B" d="M353 246h-22v139h22c5.523 0 9-5.478 9-11V255c0-5.522-3.477-9-9-9z"/><path fill="#24A187" d="M350 131H249v72h101c5.5 0 9-5.5 9-11v-52c0-5.5-3.5-9-9-9z"/><path fill="#32485D" d="M195 271h-10v-10a6.5 6.5 0 1 0-13 0v10h-7a6.5 6.5 0 1 0 0 13h7v7a6.5 6.5 0 1 0 13 0v-7h10a6.5 6.5 0 1 0 0-13zM194.85 361.364L188.485 355l6.364-6.363a6.501 6.501 0 0 0-9.193-9.193l-6.363 6.364-5.656-5.657a6.501 6.501 0 0 0-9.193 9.193l5.657 5.656-5.657 5.657a6.5 6.5 0 0 0 9.192 9.192l5.657-5.657 6.363 6.364a6.501 6.501 0 0 0 9.194-9.192zM234.5 278.5a6.5 6.5 0 0 1 6.5-6.5h30a6.5 6.5 0 1 1 0 13h-30a6.5 6.5 0 0 1-6.5-6.5z"/><path fill="#ECF0F1" d="M310.5 323.5a6.5 6.5 0 0 1 6.5-6.5h30a6.5 6.5 0 1 1 0 13h-30a6.5 6.5 0 0 1-6.5-6.5zM310.5 307.5a6.5 6.5 0 0 1 6.5-6.5h30a6.5 6.5 0 1 1 0 13h-30a6.5 6.5 0 0 1-6.5-6.5z"/><path fill="#32485D" d="M234.5 354.5a6.5 6.5 0 0 1 6.5-6.5h30a6.5 6.5 0 1 1 0 13h-30a6.5 6.5 0 0 1-6.5-6.5z"/><circle fill="#32485D" cx="256.167" cy="336" r="6.167"/><circle fill="#32485D" cx="256.167" cy="371" r="6.167"/></g></svg>