<svg xmlns="http://www.w3.org/2000/svg" width="512" height="512" viewBox="0 0 512 512"><g><radialGradient id="a" cx="256" cy="256" r="256" gradientUnits="userSpaceOnUse"><stop offset=".005" stop-color="#33495f"/><stop offset="1" stop-color="#2b3e51"/></radialGradient><circle fill="url(#a)" cx="256" cy="256" r="256"/><path fill="#1ECA6B" d="M143.169 343.672c-.551.55-.55 1.451.001 2l108.643 108.44a1.42 1.42 0 0 0 2.001-.001l207.884-208.274c.551-.55.551-1.45-.002-2l-108.642-108.44a1.42 1.42 0 0 0-2 .001L143.169 343.672z"/><path fill="#1AAF5D" d="M252.534 435.013l-90.45-90.62L352.334 154.5l90.448 90.618-190.248 189.895zm99.809-290.517L152.079 344.384l100.445 100.631 200.263-199.889-100.444-100.63z"/><circle fill="#1AAF5D" cx="302.434" cy="294.755" r="44.496"/><path fill="#1ECA6B" d="M317.252 298.46c.111 1.814-1.17 4.399-1.844 5.722l-10.382-10.181c1.512-.498 4.126-1.892 5.706-2.004 1.578-.109 3.054.512 4.431 1.86 1.28 1.256 1.978 2.789 2.089 4.603zm-1.741-14.464a12.435 12.435 0 0 0-5.336-.793c-1.736.096-3.533.649-5.114 1.376-1.58.726-3.678 1.889-6.197 3.381l-9.86-9.668c2.628-1.385 5.281-1.467 7.767-.052 2.125 1.186 4.017.932 5.535-.615.805-.821 1.236-1.84 1.225-2.983-.01-1.14-.395-2.118-1.186-2.893-.709-.696-1.674-1.277-2.908-1.729-1.233-.448-2.595-.716-4.098-.796-1.941-.135-3.9.281-5.608.98-1.707.697-4.278 2.625-5.442 3.467l-2.56-2.512c-1.297-1.271-1.706-2.148-2.7-1.137-.975.996-.066 1.398 1.26 2.698l2.514 2.465c-1.697 2.297-4.959 7.648-4.915 11.08.041 3.437 1.122 6.79 3.839 9.455 2.086 2.045 4.08 3.43 6.273 3.845 2.195.416 4.87-.266 6.984-.985 2.114-.718 5.115-2.474 7.682-3.921l11.021 10.807c-1.292.715-3.203 1.794-4.398 1.878-1.195.081-2.59.249-3.587-.111-.996-.359-2.501-.808-4.218-1.65-.783-.4-1.658-.439-2.471-.275-.811.163-1.604.639-2.301 1.349-.867.885-1.307 1.944-1.279 3.131.027 1.188.412 2.164 1.17 2.908 1.027 1.007 2.285 1.819 3.785 2.42 1.5.604 3.195.93 5.092.972 1.895.044 4.443-.904 6.463-1.636 2.02-.731 4.462-2.357 6.65-4.175l6.399 6.274c.728.713.78 1.732 1.354 1.845.573.11.839.187 1.397-.382.604-.615.494-.932.248-1.535-.249-.599-1.127-1.064-2.058-1.977l-5.901-5.787c1.791-2.206 3.482-5.121 4.097-7.738.618-2.62.622-5.193-.121-7.581-.744-2.386-1.981-4.497-3.782-6.263-1.44-1.412-2.988-2.482-4.715-3.137zm-19.012 4.618c-1.511.5-4.128 2.009-5.45 2.075-1.32.07-2.904-.207-4.152-1.43-1.311-1.286-1.48-3.071-1.401-4.45.081-1.378 1.331-3.697 1.927-5.095l9.076 8.9z"/><circle fill="#1AAF5D" cx="350.884" cy="182.02" r="11.141"/><circle fill="#1AAF5D" cx="253.983" cy="407.492" r="11.141"/><path opacity=".4" fill="#2B3E51" d="M339.953 356.79l-.197-210.071-156.184 156.474.065 68.769c0 .778.637 1.414 1.415 1.414l138.475-.129 16.426-16.457z"/><path fill="#1ECA6B" d="M173.638 373.962c0 .778.637 1.414 1.415 1.414l153.501-.143a1.42 1.42 0 0 0 1.413-1.416l-.277-294.269a1.416 1.416 0 0 0-1.416-1.414l-153.498.144a1.42 1.42 0 0 0-1.414 1.415l.276 294.269z"/><path fill="#1AAF5D" d="M315.558 361.216l-128.035-.12.252-268.802 128.032.12-.249 268.802zM180.706 85.214l-.265 282.951 142.183.131.265-282.95-142.183-.132z"/><path fill="#1AAF5D" d="M251.226 182.261c24.574-.242 44.691 19.484 44.934 44.059.242 24.573-19.48 44.688-44.055 44.93-24.573.243-44.691-19.479-44.933-44.052-.241-24.575 19.481-44.695 44.054-44.937z"/><path fill="#1ECA6B" d="M264.763 218.896c1.361 1.204 2.283 3.938 2.742 5.35l-14.54.142c.717-1.421 1.58-4.255 2.618-5.452 1.039-1.193 2.521-1.797 4.447-1.818 1.794-.016 3.371.575 4.733 1.778zm-11.459-8.996a12.416 12.416 0 0 0-4.334 3.212c-1.16 1.296-2.039 2.957-2.644 4.589-.604 1.631-1.265 3.937-1.991 6.773l-13.809.136c.879-2.838 2.697-4.771 5.455-5.529 2.341-.665 3.499-2.181 3.479-4.349-.012-1.149-.427-2.175-1.243-2.976-.813-.799-1.776-1.218-2.884-1.207-.994.009-2.087.281-3.279.834-1.189.555-2.342 1.328-3.461 2.334-1.469 1.277-2.559 2.957-3.272 4.659-.714 1.7-1.169 4.882-1.397 6.3l-3.586.034c-1.815.019-2.726-.312-2.713 1.105.015 1.394.941 1.036 2.799 1.017l3.521-.034c.424 2.825 1.901 8.915 4.358 11.31 2.46 2.401 5.596 4.008 9.4 3.971 2.921-.029 5.311-.46 7.154-1.717 1.847-1.259 3.256-3.632 4.243-5.635.987-2.002 1.867-5.367 2.659-8.205l15.435-.151c-.408 1.419-.996 3.533-1.782 4.438-.788.902-1.655 2.008-2.615 2.458-.958.45-2.34 1.197-4.149 1.815-.837.271-1.483.861-1.941 1.552-.458.688-.683 1.585-.673 2.581.013 1.239.45 2.299 1.31 3.119.859.821 1.821 1.239 2.883 1.229 1.438-.014 2.902-.33 4.388-.965 1.488-.634 2.917-1.602 4.288-2.913 1.371-1.309 2.503-3.781 3.413-5.727.911-1.945 1.488-4.822 1.75-7.655l8.962-.088c1.019-.01 1.776.673 2.262.347.483-.327.726-.461.718-1.258-.008-.862-.31-1.008-.91-1.26-.6-.248-1.549.044-2.853.057l-8.265.081c-.293-2.827-1.158-6.083-2.574-8.368-1.415-2.29-3.232-4.112-5.446-5.275-2.213-1.161-4.581-1.779-7.103-1.754-2.017.019-3.869.357-5.553 1.115zm-10.178 16.709c-.715 1.421-1.498 4.339-2.387 5.32-.884.983-2.199 1.908-3.947 1.925-1.836.018-3.219-1.125-4.138-2.156-.917-1.032-1.673-3.556-2.24-4.965l12.712-.124z"/><circle fill="#1AAF5D" cx="206.208" cy="112.779" r="11.141"/><circle fill="#1AAF5D" cx="297.122" cy="340.731" r="11.141"/><path opacity=".4" fill="#2B3E51" d="M261.293 225.328l-87.875-86.523.163 174.398.044 46.685 156.336 7.914s5.008-.903 12.212-2.216l30.517-30.574-111.397-109.684z"/><path fill="#1ECA6B" d="M251.906 454.02c.551.551 1.45.55 2-.001l108.44-108.642a1.42 1.42 0 0 0-.001-2.001L154.07 135.49a1.417 1.417 0 0 0-2 .001L43.631 244.134a1.42 1.42 0 0 0 .002 2.001L251.906 454.02z"/><path fill="#1AAF5D" d="M343.246 344.654l-90.619 90.451L62.733 244.854l90.617-90.449 189.896 190.249zM52.729 244.845l199.889 200.263L353.25 344.664 153.36 144.4 52.729 244.845z"/><circle fill="#1AAF5D" cx="202.989" cy="294.755" r="44.496"/><path fill="#1ECA6B" d="M206.693 279.936c1.814-.11 4.4 1.17 5.722 1.844l-10.181 10.382c-.498-1.513-1.892-4.127-2.004-5.707-.108-1.579.512-3.054 1.861-4.43 1.256-1.28 2.789-1.977 4.602-2.089zm-14.463 1.742a12.42 12.42 0 0 0-.795 5.336c.097 1.735.649 3.532 1.376 5.112.727 1.581 1.89 3.678 3.381 6.198l-9.667 9.861c-1.386-2.629-1.468-5.282-.053-7.768 1.186-2.125.932-4.016-.614-5.534-.823-.805-1.841-1.237-2.983-1.225-1.141.009-2.118.395-2.893 1.186-.697.709-1.278 1.673-1.73 2.907-.448 1.235-.716 2.596-.797 4.1-.135 1.941.281 3.9.98 5.608.697 1.707 2.626 4.279 3.467 5.442l-2.512 2.561c-1.271 1.296-2.148 1.707-1.137 2.699.996.975 1.398.066 2.697-1.26l2.465-2.514c2.298 1.698 7.648 4.96 11.081 4.916 3.437-.041 6.79-1.122 9.454-3.84 2.046-2.085 3.431-4.079 3.845-6.273.417-2.195-.265-4.871-.983-6.984-.719-2.115-2.475-5.116-3.922-7.681l10.807-11.021c.715 1.291 1.795 3.202 1.878 4.397.081 1.196.249 2.59-.111 3.587-.359.996-.808 2.501-1.651 4.217-.398.784-.438 1.66-.274 2.472s.64 1.604 1.349 2.301c.887.868 1.944 1.305 3.132 1.28 1.188-.028 2.165-.412 2.907-1.171 1.008-1.028 1.819-2.285 2.42-3.785.604-1.501.932-3.195.974-5.091.044-1.895-.905-4.444-1.637-6.464-.731-2.018-2.357-4.461-4.175-6.649l6.274-6.399c.713-.727 1.731-.78 1.844-1.354.111-.573.188-.838-.382-1.398-.615-.603-.932-.495-1.534-.247-.601.249-1.064 1.127-1.978 2.057l-5.787 5.902c-2.205-1.792-5.12-3.482-7.736-4.097-2.621-.618-5.193-.621-7.581.121-2.386.744-4.497 1.98-6.263 3.782-1.411 1.436-2.481 2.984-3.136 4.713zm4.618 19.01c.5 1.511 2.01 4.129 2.075 5.451.069 1.319-.207 2.904-1.431 4.152-1.286 1.311-3.071 1.48-4.45 1.401-1.379-.081-3.697-1.331-5.095-1.926l8.901-9.078z"/><circle fill="#1AAF5D" cx="90.253" cy="246.304" r="11.141"/><circle fill="#1AAF5D" cx="315.726" cy="343.205" r="11.14"/></g></svg>