<svg xmlns="http://www.w3.org/2000/svg" width="512" height="512" viewBox="0 0 512 512"><radialGradient id="a" cx="256" cy="256" r="256" gradientUnits="userSpaceOnUse"><stop offset=".005" stop-color="#e87e04"/><stop offset="1" stop-color="#d55400"/></radialGradient><circle fill="url(#a)" cx="256" cy="256" r="256"/><path fill="#BDC3C7" d="M66 173h380v55H66z"/><path fill="#33495F" d="M66 371.907C66 384.059 75.941 394 88.093 394h335.813c12.152 0 22.094-9.941 22.094-22.093V228H66v143.907z"/><path fill="#ECF0F1" d="M446 139.93c0-12.15-9.941-21.93-22.094-21.93H88.093C75.941 118 66 127.779 66 139.93V173h380v-33.07z"/><g fill="#2B3E51"><path d="M383.035 228h33.139L446 173h-33.139zM303.775 228h33.141l29.824-55h-33.138zM224.518 228h33.138l29.826-55h-33.14zM145.259 228h33.139l29.826-55h-33.14zM66 228h33.14l29.825-55H95.826z"/></g><path fill="#33495F" d="M88.093 118c-7.081 0-13.394 3.273-17.443 8.494L95.826 173h33.139L99.14 118H88.093zM145.259 118l29.825 55h33.14l-29.826-55zM224.518 118l29.824 55h33.14l-29.826-55zM303.775 118l29.827 55h33.138l-29.824-55zM383.035 118l29.826 55H446l-29.826-55z"/><g fill="#ECF0F1"><path d="M412.68 292H255v-35h157.68c1.4 0 2.535-1.1 2.535-2.5s-1.135-2.5-2.535-2.5H99.32c-1.4 0-2.535 1.1-2.535 2.5s1.135 2.5 2.535 2.5H189v35H99.32c-1.4 0-2.535 1.1-2.535 2.5s1.135 2.5 2.535 2.5h313.36c1.4 0 2.535-1.1 2.535-2.5s-1.135-2.5-2.535-2.5zM194 257h56v35h-56v-35zM412.68 332H99.32c-1.4 0-2.535 1.6-2.535 3s1.135 3 2.535 3H243v37h5v-37h55v37h6v-37h103.68c1.4 0 2.535-1.6 2.535-3s-1.135-3-2.535-3z"/></g></svg>