<svg xmlns="http://www.w3.org/2000/svg" width="512" height="512" viewBox="0 0 512 512"><radialGradient id="a" cx="256" cy="256" r="256" gradientUnits="userSpaceOnUse"><stop offset="0" stop-color="#2a93d8"/><stop offset="1" stop-color="#227fbb"/></radialGradient><circle fill="url(#a)" cx="256" cy="256" r="256"/><path fill="#FFD000" d="M407.318 326.203l-48.254-144.454c-1.49-4.464-6.65-7.085-11.113-5.594l-74.201 24.786-76.746 25.637c-4.463 1.49-6.363 6.47-4.872 10.934l48.254 144.454c1.49 4.464 6.016 7.345 10.479 5.854l76.746-25.636 74.2-24.787c4.464-1.491 6.999-6.729 5.507-11.194z"/><path fill="#F2C500" d="M197.004 226.578l76.746-25.637 53.861 161.242-76.746 25.636c-4.464 1.491-8.989-1.39-10.479-5.854l-48.254-144.454c-1.491-4.463.409-9.443 4.872-10.933z"/><path fill="#E87E04" d="M328.867 214.441c-1.797-5.378-7.613-8.282-12.992-6.486l-73.474 24.544c-5.378 1.796-8.282 7.614-6.485 12.991l.464 1.39c1.796 5.378 7.613 8.282 12.992 6.485l73.474-24.543c5.378-1.797 8.282-7.613 6.485-12.992l-.464-1.389z"/><path fill="#D55400" d="M242.295 232.535l37.792-12.625 6.97 20.867-37.792 12.624c-5.378 1.796-11.026-.956-12.822-6.335l-.542-1.623c-1.797-5.379 1.015-11.112 6.394-12.908z"/><path fill="#E94B35" d="M434.26 373.156c-2.604.869-5.49.922-8.207-.252l-25.363-10.883-161.608 53.983c-6.051 2.021-13.067-1.312-15.089-7.364L138.42 152.462l-60.411-18.026c-6.117-1.812-9.505-8.272-7.692-14.391 1.812-6.116 8.29-9.623 14.407-7.81l66.631 19.585c3.614 1.069 6.729 3.755 7.923 7.331l83.92 251.229 154.396-51.574c2.698-.901 5.584-.925 8.194.205l29.427 12.66a11.503 11.503 0 0 1 6.005 15.148c-1.36 3.14-3.954 5.333-6.96 6.337z"/><path fill="#C23824" d="M275.151 379.707l-14.359 4.796-17.596 5.878-2.79-8.354-6.906-20.676c-8.095-2.139-16.583-2.299-25.248.167l13.019 38.973 2.722 8.149c2.021 6.053 9.038 9.385 15.089 7.364l21.394-7.146 36.898-12.325c-5.679-8.646-13.53-14.458-22.223-16.826z"/><circle fill="#33495F" cx="237.705" cy="411.896" r="44.334"/><circle fill="#2B3E51" cx="237.705" cy="411.896" r="28.323"/><circle fill="#ECF0F1" cx="237.705" cy="411.896" r="20.051"/><path fill="#D55400" d="M307.977 347.651l-5.692 1.902-13.943-41.733 5.691-1.902zM298.504 350.8l-5.691 1.901-13.944-41.734 5.691-1.901zM289.968 353.68l-5.69 1.903-13.952-41.729 5.69-1.902zM281.432 356.502l-5.691 1.902-13.943-41.733 5.69-1.902zM271.936 359.69l-5.692 1.9-13.944-41.733 5.692-1.902zM263.41 362.522l-5.69 1.902-13.944-41.734 5.691-1.902zM253.915 365.707l-5.692 1.902-13.944-41.734 5.692-1.902z"/><path fill="#E87E04" d="M361.089 295.121l10.455 31.301-25.608 8.554-20.594-61.652-6.64 2.219 20.596 61.655 2.216 6.635 6.675-2.229 25.969-8.675 7.192-2.403-2.216-6.634-10.457-31.305z"/></svg>