<svg xmlns="http://www.w3.org/2000/svg" viewBox="0 0 512 512"><path fill="#b58657" d="M377.292 450.11l-4.991-53.413-119.482-145.878L142.66 396.697l-4.992 53.413"/><path d="M166.808 26.83L139.591 9.452C119.762-3.21 93.399 2.923 81.194 23.035l-58.439 96.301C.656 155.752 12.836 203.22 49.74 224.497l28.749 16.575" fill="#5c5e70"/><path d="M345.192 26.83l27.217-17.378c19.828-12.661 46.192-6.529 58.397 13.584l58.439 96.301c22.099 36.416 9.919 83.884-26.985 105.161l-28.749 16.575" fill="#b58657"/><path d="M330.099 403.805h-21.077c-29.279 0-53.021-23.742-53.021-53.032 0 21.149-12.381 39.406-30.277 47.917h-.01c-6.885 3.283-14.593 5.115-22.734 5.115h-21.087c-67.512 0-119.442-59.701-110.098-126.574l18.627-133.192c5.773-41.3 26.326-77.299 55.852-102.986C165.487 24.339 188.499 12 213.713 5.413A167.066 167.066 0 0 1 256.001 0c83.392 0 154.032 61.45 165.579 144.039l18.628 133.192c9.343 66.873-42.588 126.574-110.109 126.574z" fill="#c69a6a"/><path d="M235.56 342.732l-22.654-39.237c-12.196-21.124 3.049-47.53 27.441-47.53h31.301c24.392 0 39.637 26.406 27.441 47.53l-22.654 39.237c-9.082 15.733-31.791 15.733-40.875 0z" fill="#5c5e70"/><path d="M225.712 398.69c-6.885 3.283-14.593 5.115-22.734 5.115h-21.087c-67.512 0-119.442-59.701-110.098-126.574L90.42 144.039c5.773-41.3 26.326-77.299 55.852-102.986 19.214-16.714 42.226-29.053 67.44-35.64-32.933 21.622-89.402 109.717-61.749 153.353 0 0-27.395 21.024-36.02 75.127-11.32 71.011.331 136.877 109.769 164.797z" fill="#b58657"/><g fill="#5c5e70"><path d="M332.375 233.925a7.718 7.718 0 0 1-7.719-7.719V202.4a7.718 7.718 0 0 1 7.719-7.719 7.718 7.718 0 0 1 7.719 7.719v23.806a7.718 7.718 0 0 1-7.719 7.719zM179.621 233.925a7.72 7.72 0 0 1-7.719-7.719V202.4a7.72 7.72 0 0 1 15.438 0v23.806a7.72 7.72 0 0 1-7.719 7.719z"/></g><path fill="#34abe0" d="M124.012 450.106h263.965v54.171H124.012z"/><path fill="#279fc9" d="M124.012 450.106h41.33v54.171h-41.33z"/><path fill="#ffd15c" d="M226.113 450.106h59.783v54.171h-59.783z"/><path d="M285.887 512h-59.778a7.72 7.72 0 0 1-7.719-7.719V450.11a7.72 7.72 0 0 1 7.719-7.719h59.778a7.718 7.718 0 0 1 7.719 7.719v54.171a7.72 7.72 0 0 1-7.719 7.719zm-52.059-15.437h44.341v-38.734h-44.341v38.734z" fill="#f4a14e"/><path d="M278.548 283.292h-30.874a6.174 6.174 0 0 1-6.175-6.175 6.174 6.174 0 0 1 6.175-6.175h30.874a6.174 6.174 0 0 1 6.175 6.175 6.174 6.174 0 0 1-6.175 6.175z" fill="#797b89"/></svg>