<svg xmlns="http://www.w3.org/2000/svg" width="512" height="512" viewBox="0 0 512 512"><g><radialGradient id="a" cx="256" cy="256" r="256" gradientUnits="userSpaceOnUse"><stop offset=".504" stop-color="#fcbe41"/><stop offset=".995" stop-color="#fcb23f"/></radialGradient><circle fill="url(#a)" cx="256" cy="256" r="256"/><path fill="#EE483C" d="M230.753 153.775l136.47 136.47-131.521 131.52-136.47-136.47z"/><path fill="#1380B6" d="M427.327 230.145c7.778-7.778 8.132-20.152.354-27.931L319.493 94.026c-7.778-7.778-20.86-8.132-28.638-.354l-80.61 80.61 136.472 136.472 80.61-80.609z"/><path fill="#C6362B" d="M116.199 268.328l-32.526 32.527c-7.778 7.778-7.425 20.859.354 28.638l108.187 108.188c7.778 7.778 20.152 7.425 27.931-.354l32.527-32.527-136.473-136.472z"/><path fill="#ECF0F1" d="M224.386 433.087l-136.47-136.47 9.192-9.193 136.47 136.47z"/></g></svg>