<svg xmlns="http://www.w3.org/2000/svg" width="512" height="512" viewBox="0 0 512 512"><g><radialGradient id="a" cx="256" cy="256" r="256" gradientUnits="userSpaceOnUse"><stop offset=".504" stop-color="#fcbe41"/><stop offset=".995" stop-color="#fcb23f"/></radialGradient><circle fill="url(#a)" cx="256" cy="256" r="256"/><path fill="#ECF0F1" d="M344 130V73.963c-2.668-1.199-5.594-1.963-8-1.963H140c-4.4 0-8 3.6-8 8v338c0 4.4 3.6 8 8 8h254c4.4 0 8-3.6 8-8V138c0-2.406-.764-5.332-1.963-8H344z"/><path fill="#BDC3C7" d="M400.037 130c-.993-2.211-2.284-4.246-3.694-5.656L373 101l-23.351-23.351c-1.41-1.407-3.441-2.695-5.649-3.687V130h56.037z"/><path fill="#E94B35" d="M176 163h38v86h-38z"/><path fill="#F4CC20" d="M224 181h38v68h-38z"/><path fill="#2B3E51" d="M272 198h38v51h-38z"/><path fill="#00BD9C" d="M320 135h38v114h-38z"/><path fill="#BDC3C7" d="M176 262h182v12H176z"/><path fill="#F4CC20" d="M261.374 310.727C252.318 302.809 240.474 298 227.5 298c-.167 0-.333.011-.5.013v53.883l34.374-41.169z"/><path fill="#00BD9C" d="M227 298.013c-28.211.27-51 23.213-51 51.487 0 16.296 7.578 30.814 19.392 40.252L227 351.896v-53.883z"/><path fill="#E94B35" d="M261.374 310.727L227 351.896v49.092c.167.002.333.013.5.013 28.443 0 51.5-23.058 51.5-51.5 0-15.47-6.829-29.335-17.626-38.774z"/><path fill="#2B3E51" d="M195.392 389.752A51.259 51.259 0 0 0 227 400.987v-49.092l-31.608 37.857z"/><circle fill="#F4CC20" cx="308" cy="319.5" r="8"/><circle fill="#00BD9C" cx="308" cy="339.5" r="8"/><circle fill="#2B3E51" cx="308" cy="359.5" r="8"/><circle fill="#E94B35" cx="308" cy="379.5" r="8"/><path fill="#BDC3C7" d="M372 321h-45a2.5 2.5 0 1 1 0-5h45a2.5 2.5 0 1 1 0 5zM364 341h-37a2.5 2.5 0 1 1 0-5h37a2.5 2.5 0 1 1 0 5zM364 361h-37a2.5 2.5 0 1 1 0-5h37a2.5 2.5 0 1 1 0 5z"/><g><path fill="#BDC3C7" d="M369 381h-44a2.5 2.5 0 1 1 0-5h44a2.5 2.5 0 1 1 0 5z"/></g><path fill="#BDC3C7" d="M148 85h69v17h-69z"/><g><path fill="#BDC3C7" d="M308 87h-81a2.5 2.5 0 1 1 0-5h81a2.5 2.5 0 1 1 0 5z"/></g><g><path fill="#BDC3C7" d="M291 96h-64a2.5 2.5 0 1 1 0-5h64a2.5 2.5 0 1 1 0 5z"/></g><g><path fill="#BDC3C7" d="M316 104h-89a2.5 2.5 0 1 1 0-5h89a2.5 2.5 0 1 1 0 5z"/></g><path fill="#2B3E51" d="M148 116h172v12H148z"/></g></svg>