<svg xmlns="http://www.w3.org/2000/svg" width="512" height="512" viewBox="0 0 512 512"><g><radialGradient id="a" cx="256" cy="258.721" r="254.643" gradientUnits="userSpaceOnUse"><stop offset="0" stop-color="#04be9e"/><stop offset="1" stop-color="#00a185"/></radialGradient><path fill="url(#a)" d="M512 256c0 141.385-114.615 256-256 256S0 397.385 0 256C0 133.498 86.045 31.093 200.993 5.924 218.712 2.045 237.117 39 256 39c18.527 0 36.595-37.032 54.006-33.294C425.456 30.499 512 133.143 512 256z"/><path fill="#2B3E51" d="M248.051 153.988l16.049.025c31.464.051 56.934 25.69 56.883 57.154l-.045 27.639c-.003 1.971-1.537 3.564-3.506 3.561-1.97-.003-3.497-1.602-3.494-3.572l.045-27.639c.045-27.529-22.363-50.098-49.895-50.143l-16.049-.025c-27.531-.045-50.012 22.449-50.057 49.98l-.045 27.639c-.003 1.971-1.535 3.563-3.506 3.561-1.969-.004-3.497-1.602-3.494-3.572l.045-27.639c.051-31.465 25.605-57.02 57.069-56.969z"/><path fill="#E87E04" d="M151 190h209v31H151z"/><path fill="#FFD000" d="M256 216H146v233.961c0 3.924 3.544 7.039 7.467 7.039h205.066c3.923 0 6.467-3.115 6.467-7.039V216H256z"/><path fill="#F2C500" d="M256 216v241h102.533c3.923 0 6.467-3.115 6.467-7.039V216H256z"/><path fill="#F59D00" d="M164 200.314V216h-17.666z"/><path fill="#F2C500" d="M151 213v-23.385l13 10.699V213z"/><path fill="#F59D00" d="M164 200.314V216h-17.666z"/><path fill="#F2C500" d="M360 213v-23.385l-13 10.699V213z"/><path fill="#F59D00" d="M347 200.314V216h18.666z"/><circle fill="#F59D00" cx="317.966" cy="254.256" r="8.47"/><circle fill="#F59D00" cx="194.034" cy="254.256" r="8.47"/><path fill="#33495F" d="M247.976 170h16.049C295.488 170 321 195.598 321 227.062v27.639c0 1.971-1.531 3.566-3.5 3.566-1.97 0-3.5-1.596-3.5-3.566v-27.639C314 199.531 291.556 177 264.024 177h-16.049C220.444 177 198 199.531 198 227.062v27.639c0 1.971-1.53 3.566-3.5 3.566s-3.5-1.596-3.5-3.566v-27.639C191 195.598 216.512 170 247.976 170z"/><path fill="#E5BF88" d="M294 108.999V75h-77v34h-.229L206 127.029v77.443c0 4.402 3.986 7.527 8.389 7.527h1.809c4.402 0 7.803-3.125 7.803-7.527V195h1v14.484c0 5.695 4.805 10.355 10.5 10.355s10.5-4.66 10.5-10.355V195h1v16.704c0 6.915 5.584 12.573 12.5 12.573s12.5-5.658 12.5-12.573V195h2v7.828c0 5.289 4.791 9.172 10.08 9.172h2.219c5.288 0 8.701-3.883 8.701-9.172V150h2.394L301 161.053v14.054c0 19.97 16 16.272 16 16.272v-66.568c0-15.186-20.289-15.797-23-15.812z"/><path fill="#ECF0F1" d="M317 186.975v-13.949c-.167-.012-.334-.025-.504-.025a7 7 0 1 0 0 14c.17-.001.337-.015.504-.026z"/><path fill="#2B3E51" d="M255 .013c.334-.001.666-.013 1-.013-.334 0-.666.012-1 .013z"/><path fill="#33495F" d="M256 0c-.334 0-.666.012-1 .014a256.703 256.703 0 0 0-54 5.93V66h109V5.725A256.936 256.936 0 0 0 256 0z"/><path fill="#2B3E51" d="M256 0c-.334 0-.666.012-1 .014V66h55V5.725A256.936 256.936 0 0 0 256 0z"/><path fill="#ECF0F1" d="M206 66h99v18h-99z"/><path fill="#BDC3C7" d="M255 66h50v18h-50z"/></g></svg>