<svg xmlns="http://www.w3.org/2000/svg" width="512" height="512" viewBox="0 0 512 512"><g><radialGradient id="a" cx="256" cy="256" r="256" gradientUnits="userSpaceOnUse"><stop offset=".005" stop-color="#95a5a6"/><stop offset="1" stop-color="#7f8c8d"/></radialGradient><circle fill="url(#a)" cx="256" cy="256" r="256"/><path fill="#32495D" d="M242.792 307.547a55.178 55.178 0 0 1-10.601 14.873l-57.051 57.049c-21.607 21.608-56.765 21.607-78.372.002-21.606-21.608-21.606-56.767 0-78.373l57.05-57.051a55.203 55.203 0 0 1 14.873-10.6 55.242 55.242 0 0 1 7.688-3.057 55.782 55.782 0 0 1 33.634.124 54.918 54.918 0 0 1 10.769 4.769 55.233 55.233 0 0 1 11.409 8.765 55.294 55.294 0 0 1 8.764 11.407c11.316 5.866 24.521 6.846 36.477 2.955-4.006-13.707-11.4-26.624-22.189-37.414-10.789-10.788-23.708-18.185-37.414-22.189a88.195 88.195 0 0 0-7.938-1.927 88.762 88.762 0 0 0-33.552-.041 88.477 88.477 0 0 0-8.622 2.105c-13.533 4.035-26.28 11.384-36.948 22.052l-57.052 57.051c-34.316 34.317-34.316 90.155 0 124.474 34.318 34.317 90.157 34.317 124.475-.001l57.05-57.049c10.668-10.668 18.018-23.416 22.053-36.95a96.954 96.954 0 0 1-34.503-.974z"/><path fill="#2A3E4F" d="M198.191 402.52l57.05-57.049c10.668-10.668 18.018-23.416 22.053-36.95a96.949 96.949 0 0 1-34.502-.974 55.178 55.178 0 0 1-10.601 14.873l-57.051 57.049c-21.607 21.608-56.765 21.607-78.372.002l-23.052 23.05c34.319 34.317 90.158 34.317 124.475-.001zM240.955 255.455c11.316 5.866 24.521 6.846 36.477 2.955-4.006-13.707-11.4-26.624-22.189-37.414l-23.051 23.052a55.255 55.255 0 0 1 8.763 11.407z"/><path fill="#2A3E4F" d="M240.955 255.455c11.316 5.866 24.521 6.846 36.477 2.955-4.006-13.707-11.4-26.624-22.189-37.414l-23.051 23.052a55.255 55.255 0 0 1 8.763 11.407z"/><path fill="#32495D" d="M382.021 94.218c-34.319-34.317-90.156-34.317-124.474 0l-57.051 57.051c-10.668 10.668-18.017 23.415-22.052 36.949a96.955 96.955 0 0 1 34.503.974 55.16 55.16 0 0 1 10.6-14.872l57.051-57.051c21.606-21.606 56.765-21.606 78.373 0 21.605 21.607 21.606 56.765-.002 78.372l-57.049 57.051a55.2 55.2 0 0 1-22.562 13.657 55.774 55.774 0 0 1-33.634-.124 54.96 54.96 0 0 1-10.767-4.769 55.183 55.183 0 0 1-11.409-8.764l-23.052 23.051c10.789 10.789 23.707 18.184 37.414 22.189a88.107 88.107 0 0 0 7.938 1.926 88.788 88.788 0 0 0 33.553.043 88.804 88.804 0 0 0 8.62-2.106c13.534-4.035 26.282-11.385 36.95-22.053l57.049-57.05c34.318-34.318 34.318-90.157.001-124.474z"/><path fill="#2A3E4F" d="M382.021 94.218l-23.05 23.051c21.605 21.607 21.606 56.765-.002 78.372l-57.049 57.051a55.2 55.2 0 0 1-22.562 13.657 55.774 55.774 0 0 1-33.634-.124 54.96 54.96 0 0 1-10.767-4.769 55.183 55.183 0 0 1-11.409-8.764 55.303 55.303 0 0 1-8.765-11.409c-11.318-5.865-24.522-6.845-36.477-2.954 4.005 13.706 11.401 26.625 22.189 37.414 10.789 10.789 23.707 18.184 37.414 22.189a88.107 88.107 0 0 0 7.938 1.926 88.788 88.788 0 0 0 33.553.043 88.804 88.804 0 0 0 8.62-2.106c13.534-4.035 26.282-11.385 36.95-22.053l57.049-57.05c34.319-34.318 34.319-90.157.002-124.474z"/><path fill="#EE483C" d="M305 353.5c0 38.66 31.34 70 70 70v-140c-38.66 0-70 31.34-70 70z"/><path fill="#C6362B" d="M375 283.5v140c38.66 0 70-31.34 70-70s-31.34-70-70-70z"/><path fill="#FFF" d="M361 317.545V342h-20.814c-7.877 0-14.262 6.624-14.262 14.5 0 7.878 6.385 14.5 14.262 14.5H361v19.217c0 7.749 6.308 14.039 14 14.242V303.302c-7.692.204-14 6.495-14 14.243z"/><path fill="#BDC3C7" d="M389 390.217V371h22.336c7.876 0 14.262-6.622 14.262-14.5 0-7.876-6.386-14.5-14.262-14.5H389v-24.455c0-7.877-5.972-14.262-13.848-14.262-.129 0-.024.016-.152.019v101.157c.128.003.023.02.152.02 7.876 0 13.848-6.385 13.848-14.262z"/></g></svg>