<svg xmlns="http://www.w3.org/2000/svg" width="512" height="512" viewBox="0 0 512 512"><g><radialGradient id="a" cx="256" cy="256" r="256" gradientUnits="userSpaceOnUse"><stop offset=".504" stop-color="#fcbe41"/><stop offset=".995" stop-color="#fcb23f"/></radialGradient><circle fill="url(#a)" cx="256" cy="256" r="256"/><path fill="#7F8C8D" d="M375.338 339.993c41.022-58.657 35.273-140.237-17.18-192.403-58.689-58.364-153.927-58.104-212.289.594-58.373 58.689-58.107 153.923.588 212.295 52.452 52.156 134.068 57.449 192.494 16.107l29.877 29.708L387.02 388l18.195-18.295-29.877-29.712zm-202.42-6.128c-44.02-43.776-44.219-115.203-.443-159.219 43.779-44.021 115.202-44.221 159.22-.443 44.021 43.771 44.222 115.197.444 159.221-43.778 44.019-115.2 44.215-159.221.441z"/><path fill="#95A5A6" d="M172.918 333.865c-44.02-43.776-44.219-115.203-.443-159.219l-26.605-26.463c-58.373 58.689-58.107 153.923.588 212.295 52.452 52.156 134.068 57.449 192.494 16.107l29.877 29.708L387.02 388l-54.881-54.576c-43.778 44.019-115.2 44.215-159.221.441z"/><path fill="#33495F" d="M415.165 369.678c-9.184-9.136-24.034-9.093-33.169.093l-6.617 6.655-6.614 6.652c-9.135 9.184-9.095 24.032.091 33.168l43.042 42.804a257.444 257.444 0 0 0 24.765-21.682 257.375 257.375 0 0 0 21.77-24.664l-43.268-43.026z"/><path fill="#2B3E51" d="M381.996 369.771l-6.617 6.655 61.283 60.942a257.375 257.375 0 0 0 21.77-24.664l-43.267-43.026c-9.184-9.136-24.034-9.093-33.169.093z"/><path fill="#ECF0F1" d="M282.631 179.647a10.547 10.547 0 0 1-9.438 2.939c-33.079-6.206-61.736 14.339-62.021 14.551-4.71 3.433-11.312 2.396-14.749-2.312-3.434-4.712-2.363-11.332 2.31-14.75 1.468-1.067 36.411-26.109 78.355-18.241 5.728 1.073 9.502 6.59 8.424 12.321a10.487 10.487 0 0 1-2.881 5.492zM326.072 204.855a10.65 10.65 0 0 1-7.456 3.109 10.646 10.646 0 0 1-7.47-3.066 10.626 10.626 0 0 1-3.107-7.458 10.626 10.626 0 0 1 3.063-7.472 10.651 10.651 0 0 1 7.454-3.105c2.789-.004 5.513 1.11 7.474 3.065a10.629 10.629 0 0 1 3.105 7.456 10.619 10.619 0 0 1-3.063 7.471z"/><path fill="#EE483C" d="M298.867 208.67l-14.819 14.819c-15.724-12.479-38.14-12.512-53.899-.1l-14.72-14.72a5 5 0 1 0-7.071 7.071l14.691 14.69c-12.616 15.772-12.647 38.349-.101 54.158l-15.298 15.297a5 5 0 0 0 7.071 7.071l15.298-15.298c15.809 12.547 38.385 12.516 54.158-.1l15.396 15.397a5.001 5.001 0 0 0 7.071-7.071l-15.427-15.427c12.412-15.759 12.38-38.176-.1-53.899l14.819-14.819a5 5 0 1 0-7.069-7.069zm-21.946 21.946l-19.772 19.772-19.871-19.87c11.764-8.6 27.911-8.567 39.643.098zm-46.746 6.942l19.902 19.902-20.002 20.002c-8.73-11.818-8.695-28.118.1-39.904zm6.971 46.975l20.002-20.002 19.902 19.902c-11.785 8.796-28.085 8.831-39.904.1zm46.944-7.202l-19.87-19.87 19.772-19.773c8.666 11.731 8.698 27.878.098 39.643z"/></g></svg>