<svg xmlns="http://www.w3.org/2000/svg" width="512" height="512" viewBox="0 0 512 512"><radialGradient id="a" cx="256" cy="266.575" r="250.768" gradientUnits="userSpaceOnUse"><stop offset=".005" stop-color="#1eca6b"/><stop offset=".995" stop-color="#19a658"/></radialGradient><path fill="url(#a)" d="M512 256c0 141.385-114.615 256-256 256S0 397.385 0 256C0 153.991 59.664 65.918 145.998 24.773 179.323 8.891 219.29 56 258.668 56c38.984 0 73.268-47.286 106.341-31.698C451.879 65.244 512 153.601 512 256z"/><path fill="#F4C342" d="M351 238.509c0 10.765-8.727 19.491-19.491 19.491H177.491C166.727 258 158 249.273 158 238.509v-27.018c0-10.765 8.727-19.491 19.491-19.491h154.018c10.765 0 19.491 8.727 19.491 19.491v27.018zm-8-26.815c0-6.458-5.236-11.694-11.694-11.694H178.694c-6.458 0-11.694 5.236-11.694 11.694v26.611c0 6.458 5.236 11.694 11.694 11.694h152.611c6.458 0 11.694-5.236 11.694-11.694v-26.611z"/><path fill="#F89B36" d="M178.813 192c-1.614 0-3.813-.1-5.813.27v8.208c2-.626 4.146-.477 5.813-.477h153.594c1.972 0 3.593-.009 4.593.853v-8.371c-1-.505-2.699-.481-4.593-.481H178.813zM258 249h9v9h-9zM242 249h9v9h-9z"/><path fill="#F4C342" d="M254.502 285.261c-2.154 0-3.502-1.746-3.502-3.898v-35.085c0-2.153 1.348-3.898 3.502-3.898 2.152 0 3.498 1.745 3.498 3.898v35.085c0 2.152-1.346 3.898-3.498 3.898z"/><path fill="#F89B36" d="M255.281 263.631c-1.568 0-3.281.041-4.281.104v17.627c0 2.152 1.348 3.898 3.502 3.898 2.152 0 3.498-1.746 3.498-3.898v-17.686c0-.028-1.676-.045-2.719-.045z"/><circle fill="#F4C342" cx="256" cy="378.821" r="110.513"/><path fill="#F89B36" d="M256 281.173c-53.931 0-97.65 43.718-97.65 97.648 0 53.929 43.72 97.648 97.65 97.648 53.926 0 97.649-43.719 97.649-97.648 0-53.93-43.723-97.648-97.649-97.648zm0 180.52c-45.77 0-82.871-37.104-82.871-82.872 0-45.77 37.102-82.874 82.871-82.874s82.875 37.104 82.875 82.874c0 45.769-37.106 82.872-82.875 82.872z"/><path fill="#F89B36" d="M251.574 323.875c2.434-4.932 6.418-4.932 8.852 0l10.679 21.639c2.435 4.932 8.878 9.614 14.321 10.405l23.881 3.47c5.443.791 6.674 4.579 2.736 8.418l-17.281 16.844c-3.938 3.839-6.399 11.415-5.469 16.836l4.077 23.783c.93 5.421-2.292 7.762-7.161 5.203l-21.357-11.229c-4.869-2.559-12.835-2.559-17.703 0l-21.358 11.229c-4.868 2.559-8.091.218-7.161-5.203l4.08-23.783c.928-5.421-1.533-12.997-5.471-16.836l-17.281-16.844c-3.938-3.839-2.707-7.627 2.736-8.418l23.879-3.47c5.443-.791 11.889-5.473 14.322-10.405l10.679-21.639z"/><path fill="#EC7C2D" d="M205.296 373.011l21.276-3.091c5.443-.791 11.889-5.473 14.322-10.405l10.68-21.639c2.434-4.932 6.418-4.932 8.852 0l10.679 21.639c2.435 4.932 8.878 9.614 14.321 10.405l21.277 3.092 5.34-5.204c3.938-3.839 2.707-7.627-2.736-8.418l-23.881-3.47c-5.443-.791-11.887-5.473-14.321-10.405l-10.679-21.639c-2.434-4.932-6.418-4.932-8.852 0l-10.68 21.639c-2.434 4.932-8.879 9.614-14.322 10.405l-23.879 3.47c-5.443.791-6.674 4.579-2.736 8.418l5.339 5.203zM221.832 406.591l-3.203 18.679c-.469 2.731.119 4.678 1.438 5.613l2.643-15.396c.458-2.676.087-5.878-.878-8.896zM290.168 406.592c-.965 3.018-1.334 6.219-.875 8.896l2.639 15.396c1.32-.935 1.906-2.881 1.438-5.613l-3.202-18.679z"/><path fill="#32495D" d="M200 221.686V6.161a254.106 254.106 0 0 0-54 18.623v151.104l54 45.798z"/><path fill="#EE483C" d="M311 221v.686l54-45.797V24.317a254.047 254.047 0 0 0-54-18.374V221z"/><path fill="#ECF0F1" d="M200 6.161V221h56V0a256.825 256.825 0 0 0-56 6.161z"/><path fill="#BDC3C7" d="M256 0v221h55V5.943A256.862 256.862 0 0 0 256 0z"/></svg>