<svg xmlns="http://www.w3.org/2000/svg" width="512" height="512" viewBox="0 0 512 512"><g><radialGradient id="a" cx="256" cy="241.295" r="248.757" gradientUnits="userSpaceOnUse"><stop offset="0" stop-color="#2a93d8"/><stop offset="1" stop-color="#227fbb"/></radialGradient><path fill="url(#a)" d="M512 256c0 86.198-42.602 162.445-107.899 208.836C362.295 494.537 306.687 478 251.5 478c-61.683 0-113.771 12.185-157.969-24.152C36.423 406.896 0 335.701 0 256 0 114.615 114.615 0 256 0s256 114.615 256 256z"/><path opacity=".5" fill="#ECF0F1" d="M404.101 464.836c51.616-36.671 89.044-92 102.465-156.15-33.157 4.743-62.635 27.243-74.646 60.991a93.592 93.592 0 0 0-4.493 18.192c-27.744-6.174-56.381 9.146-66.155 36.61a57.668 57.668 0 0 0-1.821 6.247 52.195 52.195 0 0 0-11.252-5.611c-27.13-9.656-56.949 4.511-66.604 31.641a51.917 51.917 0 0 0-2.797 22.314c45.869 3.13 90.397 10.565 125.303-14.234zM173.609 399.985c-15.94-21.663-46.101-26.663-68.14-11.624a66.294 66.294 0 0 0-8.435-15.374c-18.462-25.091-51.245-33.374-78.782-21.937 16.145 40.346 42.239 75.634 75.278 102.797 16.615 13.66 34.345 20.462 53.28 23.633a49.663 49.663 0 0 0 16.202-7.881c22.151-16.297 26.895-47.464 10.597-69.614z"/><path fill="#F2C500" d="M70 171.936L430 97 146.742 242.863z"/><path fill="#F59D00" d="M147 312.629v-69.766L430 97z"/><path fill="#F2C500" d="M279.296 351l-84.307-74.936L430 97z"/><path fill="#ECF0F1" d="M365.059 444.384c-5.633-34.062-35.208-60.042-70.866-60.042-19.88 0-37.872 8.075-50.88 21.124-14.096-14-33.508-22.655-54.944-22.655-32.709 0-60.696 20.148-72.272 48.705-10.821 2.718-19.116 13.744-20.805 24.938C139.378 492.42 195.666 512 257 512c55.187 0 106.294-17.464 148.1-47.164-9.839-11.511-24.033-19.184-40.041-20.452z"/></g></svg>