<svg xmlns="http://www.w3.org/2000/svg" width="512.125" height="512.125" viewBox="0 0 512.125 512.125"><g><radialGradient id="a" cx="255.724" cy="256.066" r="255.933" gradientTransform="rotate(-24.605 255.88 255.288)" gradientUnits="userSpaceOnUse"><stop offset=".005" stop-color="#e94b35"/><stop offset="1" stop-color="#c23824"/></radialGradient><circle fill="url(#a)" cx="256.062" cy="256.063" r="255.937"/><path fill="#2A3E4F" d="M110.331 132.611c4.079 4.086 10.618 4.01 14.7-.072l.064-.064c4.083-4.082 4.176-10.613.098-14.699L78.752 71.253c-5.076 4.868-9.947 9.902-14.566 15.136l46.145 46.222z"/><path fill="#BDC3C7" d="M203.137 179.768c8.337 8.352 8.324 21.88-.027 30.213l8.479 8.493c13.039-13.019 13.061-34.144.041-47.184-13.02-13.044-34.146-13.062-47.186-.043l8.479 8.491c8.348-8.333 21.878-8.322 30.214.03z"/><path fill="#ECF0F1" d="M164.402 218.434c13.02 13.042 34.145 13.061 47.186.04l-8.479-8.493c-8.35 8.339-21.875 8.328-30.214-.024-8.336-8.352-8.325-21.879.026-30.218l-8.479-8.491c-13.038 13.018-13.057 34.145-.04 47.186z"/><path fill="#1C99D8" d="M164.443 171.247l-34.828-34.884c-1.988 1.985-3.365 4.587-3.648 7.322l-10.057 96.77c-.566 5.47 2.146 13.131 6.032 17.024l204.885 205.237c3.886 3.891 10.252 3.896 14.144.012l57.324-57.227L211.527 218.41c-13.043 13.021-34.135 13.033-47.154-.007-13.02-13.042-12.969-34.137.07-47.156z"/><path fill="#1380B6" d="M233.734 122.838l-96.787 9.884c-2.734.28-5.34 1.653-7.332 3.642l34.828 34.884c13.039-13.019 34.166-13.001 47.186.043 13.02 13.04 12.998 34.165-.041 47.184l186.707 187.028 57.324-57.229c3.893-3.884 3.897-10.248.012-14.141L250.747 128.897c-3.886-3.893-11.541-6.622-17.013-6.059z"/><path fill="#32495D" d="M199.787 185.422c4.682 4.689 4.674 12.289-.016 16.969l-4.248 4.24c-4.688 4.681-12.285 4.676-16.969-.016l-67.117-67.232c-4.683-4.688-4.674-12.289.015-16.97l4.246-4.239c4.69-4.682 12.289-4.678 16.972.015l67.117 67.233z"/><path fill="#2A3E4F" d="M121.597 114.957l-10.386 24.175c.077.081.148.169.227.251l8.245 8.256 12.743-29.668a11.96 11.96 0 0 0-10.829-3.014zM136.4 164.389l12.755-29.688-8.477-8.494-12.755 29.689zM153.121 181.139l12.754-29.688-8.479-8.494-12.75 29.688zM169.842 197.887l12.752-29.686-8.478-8.495-12.753 29.688zM178.452 206.718c2.728 2.728 6.485 3.81 10.036 3.366l10.801-25.111-8.515-8.453-12.794 29.727.472.471z"/><path fill="#BDC3C7" d="M261.512 267.246c-.42-2.559-1.322-5.279-2.693-8.159-1.377-2.884-3.064-5.951-5.061-9.208-1.56-2.64-2.651-4.553-3.282-5.744a19.879 19.879 0 0 1-1.539-3.859c-.397-1.383-.508-2.666-.331-3.854.178-1.186.733-2.245 1.67-3.173 1.514-1.498 3.555-2.03 6.12-1.593 2.563.439 5.061 1.881 7.486 4.334 2.618 2.643 4.021 5.055 4.212 7.229.19 2.175-.176 4.566-1.102 7.171-.582 1.886-.867 3.379-.85 4.482.014 1.103.563 2.201 1.638 3.286 1.181 1.194 2.62 1.743 4.32 1.646 1.696-.099 3.111-.706 4.24-1.827 1.235-1.223 2.188-2.797 2.857-4.725.667-1.926.907-4.17.719-6.727-.188-2.556-.966-5.24-2.331-8.051-1.365-2.805-3.471-5.647-6.32-8.526-3.568-3.604-7.211-6.205-10.924-7.804-3.717-1.601-7.272-2.113-10.67-1.534-3.398.577-6.387 2.142-8.967 4.695-2.707 2.681-4.312 5.591-4.816 8.727-.504 3.137-.162 6.364 1.033 9.68.616 1.716 1.418 3.547 2.397 5.486l22.306 22.307a15.749 15.749 0 0 0-.112-4.259z"/><path fill="#FFF" d="M242.528 254.914c1.915 3.084 3.36 5.634 4.337 7.644.979 2.01 1.448 3.97 1.418 5.879-.031 1.909-.824 3.634-2.381 5.175-1.963 1.941-4.47 2.683-7.52 2.221-3.054-.463-5.973-2.098-8.761-4.912-2.024-2.047-3.337-4.023-3.932-5.924s-.734-3.697-.417-5.381c.312-1.686.923-3.564 1.825-5.642.772-1.734 1.137-3.266 1.091-4.591-.048-1.328-.566-2.491-1.559-3.49-1.224-1.24-2.644-1.852-4.254-1.836-1.613.013-2.998.586-4.147 1.727-1.983 1.961-3.364 4.648-4.146 8.062a21.48 21.48 0 0 0 .107 10.185c1.227 4.736 4.132 9.421 8.712 14.048 3.819 3.858 7.764 6.562 11.829 8.109s7.95 1.934 11.656 1.158c3.707-.777 6.98-2.568 9.813-5.376 2.367-2.344 3.948-4.744 4.747-7.199.35-1.078.561-2.167.676-3.264L239.319 249.2a79.011 79.011 0 0 0 3.209 5.714z"/><path fill="#BDC3C7" d="M309.355 309.556c-.055-1.36-.729-2.836-2.162-4.286l-7.487-7.562-12.317-12.445 11.455-11.342 12.272 12.396 9.21 9.31c1.501 1.514 2.914 2.34 4.314 2.412 1.399.067 2.637-.427 3.746-1.525 1.09-1.075 1.648-2.361 1.594-3.761-.059-1.401-.789-2.905-2.287-4.419l-9.242-9.336-15.58-15.738c-1.33-1.345-2.675-2.197-3.924-2.67-1.251-.473-2.441-.363-3.704.086-1.264.452-2.512 1.475-3.878 2.825l-18.969 18.778 32.455 32.455c1.07-.141 2.053-.628 2.918-1.487 1.067-1.059 1.647-2.335 1.586-3.691z"/><path fill="#FFF" d="M256.118 298.391c-2.046 2.024-2.997 3.674-3.019 5.487-.019 1.814 1.078 3.488 3.125 5.552l15.774 15.938 9.775 9.876c1.477 1.491 2.761 2.449 4.202 2.52 1.443.07 2.631-.355 3.74-1.453 1.15-1.139 1.738-2.471 1.682-3.912-.053-1.444-.781-2.953-2.257-4.443l-9.808-9.909-12.406-12.533 13.093-12.96 12.351 12.475 7.456 7.533c1.456 1.471 2.905 2.19 4.274 2.229.256.007.503-.025.75-.058l-32.455-32.455-16.277 16.113zM339.552 365.913c-3.729 1.31-7.21 1.546-10.441.714-3.23-.836-6.05-2.469-8.456-4.896-1.879-1.9-3.253-3.991-4.119-6.275-.869-2.286-1.205-4.744-1.001-7.375.206-2.629 1.054-5.344 2.542-8.148 1.256-2.368 2.959-4.672 5.055-6.92l-9.595-9.595c-2.937 3.115-5.306 6.427-7.108 9.931-2.044 3.992-3.184 8.021-3.415 12.097-.235 4.069.493 8.142 2.181 12.21 1.686 4.072 4.346 7.943 7.976 11.611 3.649 3.689 7.468 6.391 11.448 8.109 3.979 1.715 8.028 2.481 12.143 2.287 4.117-.188 8.143-1.262 12.078-3.213 3.58-1.779 7.033-4.241 10.357-7.373l-9.586-9.586c-3.345 3.1-6.699 5.247-10.059 6.422z"/><path fill="#BDC3C7" d="M338.354 310.774c-4.055.127-8.096 1.161-12.127 3.104-4.029 1.938-7.845 4.696-11.449 8.264-.424.421-.838.846-1.241 1.274l9.595 9.595c.386-.416.76-.832 1.175-1.242 2.645-2.617 5.36-4.642 8.146-6.07 2.789-1.427 5.438-2.235 7.953-2.425 2.517-.188 4.927.17 7.235 1.072 2.308.903 4.4 2.302 6.278 4.198 2.64 2.668 4.333 5.665 5.08 9.002.745 3.336.41 6.803-1.01 10.398-1.418 3.604-3.844 7.101-7.277 10.498-.367.364-.734.707-1.102 1.047l9.586 9.586c.328-.311.658-.619.982-.941 4.904-4.854 8.289-9.977 10.15-15.367 1.863-5.388 2.056-10.804.578-16.242-1.479-5.437-4.627-10.59-9.439-15.453-3.546-3.582-7.273-6.226-11.178-7.932-3.904-1.706-7.884-2.494-11.935-2.366z"/></g></svg>