<svg xmlns="http://www.w3.org/2000/svg" width="512" height="512" viewBox="0 0 512 512"><radialGradient id="a" cx="256" cy="256" r="256" gradientUnits="userSpaceOnUse"><stop offset="0" stop-color="#9c56b8"/><stop offset="1" stop-color="#8f3faf"/></radialGradient><circle fill="url(#a)" cx="256" cy="256" r="256"/><path fill="#ECF0F1" d="M449 143c0-11-9-20-20-20 0 0-59-7-174-7s-179 7-179 7c-11 0-20 9-20 20v101h393V143z"/><path fill="#BDC3C7" d="M56 244v101c0 11 9 20 20 20 0 0 59 7 174 7 54.991 0 98.311-1.601 128.557-3.271-.652 8.845-4.583 27.784-25.557 38.271 0 0 42.232-3.074 63.447-40.843C424.734 365.466 429 365 429 365c11 0 20-9 20-20V244H56z"/><g><path fill="#1C99D8" d="M145.32 219.002c-13.807 0-24.998 11.192-24.998 24.998h49.998c0-13.806-11.193-24.998-25-24.998z"/><path fill="#1380B6" d="M145.32 268.998c13.807 0 25-11.192 25-24.998h-49.998c0 13.806 11.192 24.998 24.998 24.998zM366.678 268.998c13.807 0 25-11.192 25-24.998H341.68c0 13.806 11.191 24.998 24.998 24.998z"/><path fill="#1C99D8" d="M366.678 219.002c-13.807 0-24.998 11.192-24.998 24.998h49.998c0-13.806-11.194-24.998-25-24.998z"/><path fill="#1380B6" d="M256 268.998c13.805 0 25-11.192 25-24.998h-49.998c0 13.806 11.191 24.998 24.998 24.998z"/><path fill="#1C99D8" d="M256 219.002c-13.807 0-24.998 11.192-24.998 24.998H281c0-13.806-11.195-24.998-25-24.998z"/></g></svg>