<svg xmlns="http://www.w3.org/2000/svg" width="512" height="512" viewBox="0 0 512 512"><radialGradient id="a" cx="256" cy="256" r="256" gradientUnits="userSpaceOnUse"><stop offset=".005" stop-color="#e94b35"/><stop offset="1" stop-color="#c23824"/></radialGradient><path fill="url(#a)" d="M512 256c0 141.385-114.615 256-256 256-12.695 0-25.172-.924-37.371-2.708-36.57-5.349-57.125-64.858-86.961-83.958-30.234-19.354-69.637 1.537-89.416-28.398C15.548 356.514 0 308.072 0 256 0 114.615 114.615 0 256 0s256 114.615 256 256z"/><path fill="#BFA072" d="M308.352 189.855c-5.873-2.658-10.568-7.809-12.42-14.509-3.311-11.978 3.717-24.37 15.693-27.682l112.92-31.212c11.975-3.31 24.369 3.716 27.681 15.693 3.31 11.977-3.716 24.371-15.692 27.682l-112.92 31.211a22.401 22.401 0 0 1-15.262-1.183z"/><path fill="#E5BF88" d="M114.102 323.107l-18.557 40.996 123.897 56.084 16.495-36.44s100.047 1.433 116.357-74.608L138.51 214.012l-54.326 29.693 29.918 79.402z"/><path fill="#BFA072" d="M152.094 220.055l-4.637-.346-12.725 11.751 62.792 38.303 3.412 65.21 51.919-34.675s19.76 48.183 83.207 43.259c7.458-9.207 13.248-20.512 16.232-34.418l-200.2-89.084z"/><circle fill="#33495F" cx="263.422" cy="206.616" r="113.244"/><circle fill="#2A3E4F" cx="259.298" cy="215.727" r="113.244"/><path fill="#ECF0F1" d="M219.816 302.951c-48.098-21.771-69.514-78.612-47.742-126.709 21.771-48.096 78.611-69.513 126.709-47.741 48.096 21.771 69.512 78.612 47.74 126.709-21.771 48.096-78.611 69.513-126.707 47.741z"/><path fill="#32ACFC" d="M222.312 297.449a4.001 4.001 0 0 1-1.994-5.294l9.484-20.953a4.001 4.001 0 0 1 7.289 3.3l-9.485 20.953a4.001 4.001 0 0 1-5.294 1.994zM283.346 162.619a3.999 3.999 0 0 1-1.994-5.293l9.484-20.953a4 4 0 0 1 7.289 3.299l-9.486 20.953a4 4 0 0 1-5.293 1.994zM316.771 194.23a2.002 2.002 0 0 1 1.166-2.578l19.652-7.403a1.999 1.999 0 1 1 1.41 3.743l-19.652 7.404a1.997 1.997 0 0 1-2.576-1.166zM178.275 246.412a2 2 0 0 1 1.167-2.576l19.651-7.404a2 2 0 0 1 1.41 3.744l-19.65 7.402a2 2 0 0 1-2.578-1.166zM280.906 273.465a2.003 2.003 0 0 1 2.578 1.168l7.402 19.65a2 2 0 1 1-3.742 1.41l-7.404-19.651a2 2 0 0 1 1.166-2.577zM228.725 134.971a2.002 2.002 0 0 1 2.576 1.166l7.404 19.651a2.003 2.003 0 0 1-1.166 2.577 2.003 2.003 0 0 1-2.578-1.166l-7.403-19.65a2 2 0 0 1 1.167-2.578zM312.31 240.494a4 4 0 0 1 5.294-1.996l20.953 9.486a4 4 0 0 1-3.3 7.287l-20.953-9.484a3.998 3.998 0 0 1-1.994-5.293zM177.48 179.461a3.997 3.997 0 0 1 5.293-1.994l20.953 9.484a4 4 0 0 1-3.299 7.288l-20.953-9.485a3.998 3.998 0 0 1-1.994-5.293z"/><path fill="#E5BF88" d="M139.855 120.719L84.184 243.705l63.273-23.996s52.75-71.672-7.602-98.99z"/><path fill="#ECF0F1" d="M119.895 164.812a18.42 18.42 0 0 0 6.175 4.549c9.308 4.213 20.271.083 24.483-9.225s.082-20.27-9.225-24.482a18.417 18.417 0 0 0-7.492-1.638l-13.941 30.796z"/><path fill="#E5BF88" d="M327.01 238.367c-6.734-3.049-12.059-9.042-13.973-16.777-3.316-13.402 4.859-26.957 18.264-30.273l64.279-15.907c13.398-3.317 26.957 4.858 30.273 18.263 3.317 13.402-4.859 26.957-18.262 30.273l-64.281 15.907a24.883 24.883 0 0 1-16.3-1.486z"/><path fill="#E5BF88" d="M326.795 284.922c-6.256-2.832-11.141-8.48-12.719-15.705-2.652-12.141 5.039-24.132 17.181-26.783l57.251-12.504c12.137-2.65 24.131 5.041 26.782 17.182s-5.04 24.131-17.181 26.782l-57.251 12.503a22.4 22.4 0 0 1-14.063-1.475z"/><path fill="#E5BF88" d="M337.488 324.339c-5.492-2.486-9.803-7.415-11.256-13.745-2.477-10.765 4.244-21.498 15.008-23.973l25.729-5.916c10.766-2.477 21.5 4.244 23.975 15.008 2.475 10.766-4.244 21.5-15.01 23.974l-25.729 5.917a19.92 19.92 0 0 1-12.717-1.265z"/><circle fill="#ECF0F1" cx="340.365" cy="213.676" r="14"/><circle fill="#ECF0F1" cx="339.04" cy="266.314" r="11.5"/><circle fill="#ECF0F1" cx="346.385" cy="305.862" r="9.499"/><path fill="#ECF0F1" d="M70.938 352.965l166.712 75.469-12.785 28.242-166.712-75.47z"/><path fill="#BDC3C7" d="M154.745 390.906l82.9 37.528-12.784 28.242-82.9-37.528z"/><path fill="#33495F" d="M42.27 396.926C81.563 456.4 145.004 498.507 218.631 509.277l20.824-46.002-188.578-85.363-8.607 19.014z"/><path fill="#2B3E51" d="M118.162 471.759a254.41 254.41 0 0 0 100.469 37.518l20.824-46.002-97.479-44.124-23.814 52.608z"/><path fill="#2A3E4F" d="M319.604 111.621a5.412 5.412 0 0 1-7.162 2.699l-12.916-5.848a5.409 5.409 0 0 1-2.697-7.162l14.506-32.045a5.41 5.41 0 0 1 7.16-2.699l12.916 5.848a5.41 5.41 0 0 1 2.699 7.161l-14.506 32.046z"/><path fill="#33495F" d="M332.648 69.68l-12.916-5.846a5.412 5.412 0 0 0-7.162 2.699l-11.557 25.529c3.025 2.109 6.766 4.23 10.949 6.125 4.184 1.893 8.246 3.303 11.826 4.186l11.557-25.531a5.41 5.41 0 0 0-2.697-7.162z"/><path fill="#2A3E4F" d="M349.688 72.062c.01-.02.023-.037.032-.059.01-.021.015-.046.024-.068.01-.021.025-.041.035-.062s.014-.043.021-.063c.012-.023.027-.044.039-.068.012-.026.018-.054.027-.079.01-.018.021-.033.03-.053l-.081.166c.012-.024-.064.158-.064.158 1.648-3.645-9.213-5.268-21.088-10.643-11.873-5.375-20.262-12.465-21.912-8.821l.079-.159c-.011.021.026-.072.017-.051s.012-.011.001.012c-.009.021-.013.012-.022.033-.01.023-.008.032-.018.055-.01.021-.021.033-.031.057-.01.021-.014.042-.023.064-.01.021-.023.039-.034.062-.011.024-.017.048-.025.073-.011.02-.022.037-.032.059-.01.021-.016.044-.023.066-.012.021-.027.041-.037.063l-.021.063c-.012.023-.027.044-.037.068-.012.021-.016.045-.025.066-.01.023-.025.041-.035.064-.01.02-.014.041-.021.062-.012.022-.027.043-.038.067s-.017.05-.026.073c-.01.021-.023.039-.033.059-.01.022-.014.047-.023.068-.012.022-.025.041-.035.063-.01.021-.014.042-.022.063-.013.023-.027.044-.038.068-.011.023-.018.049-.027.074-.01.02-.022.037-.031.057-.012.023-.016.047-.025.068-.01.023-.025.041-.035.064-.01.021-.014.045-.023.066-.01.023-.025.041-.035.064-.01.021-.015.045-.025.068-.01.021-.024.041-.035.062l-.021.062c-.012.023-.027.045-.037.068-.012.023-.018.049-.027.074-.01.02-.023.038-.033.059-.01.021-.014.046-.023.068-.01.021-.025.04-.035.062-.01.021-.014.046-.024.068l-.035.062c-.011.025-.017.051-.026.074-.01.021-.023.038-.032.059s-.015.042-.022.062c-.012.023-.027.043-.037.068-.011.021-.016.045-.025.068-.01.021-.025.041-.035.062-.01.022-.014.047-.023.068-.011.022-.025.041-.035.063-.011.022-.016.046-.025.068-.01.021-.024.04-.035.062-.01.024-.016.05-.025.074-.01.021-.023.038-.033.058-.01.021-.014.043-.021.062-.012.024-.027.045-.039.068-.01.023-.014.047-.023.068s-.025.041-.035.062c-.01.023-.015.047-.024.068-.011.023-.025.043-.036.064-.01.022-.014.047-.023.068s-.025.041-.035.062c-.01.022-.015.047-.024.068-.011.022-.024.041-.035.063s-.015.046-.024.068c-.01.021-.025.04-.035.062-.01.021-.014.042-.021.063-.012.023-.027.044-.039.068-.01.023-.016.049-.025.073-.01.021-.023.038-.033.06s-.016.045-.025.068c-.009.021-.023.039-.033.062-.011.021-.016.045-.025.068-.01.021-.025.041-.035.062-.01.022-.014.047-.023.068-.011.022-.025.041-.036.063-.01.022-.015.046-.024.067-.01.022-.023.041-.035.063-.01.022-.014.046-.023.068-.011.022-.025.041-.035.063-.011.021-.016.046-.025.068-.01.021-.025.041-.035.062-.01.023-.014.047-.023.068s-.025.041-.035.062c-.01.023-.016.047-.024.068-.011.023-.026.041-.036.064-.01.021-.014.045-.023.068-.01.021-.025.041-.035.062-.01.022-.016.047-.023.068-.011.021-.025.041-.036.062-.01.022-.015.047-.024.068-.01.022-.025.041-.035.063s-.014.046-.024.068-.024.041-.036.063c-.01.021-.014.046-.023.068-.01.021-.025.041-.035.062-.01.023-.014.047-.025.068-.01.023-.023.041-.035.064-.008.02-.014.041-.021.062-.012.022-.027.043-.037.067-.012.024-.017.05-.026.073l-.032.059c-.011.022-.016.047-.025.068-.01.022-.025.041-.035.063s-.014.046-.023.067c-.01.022-.025.041-.035.063s-.016.046-.025.068-.025.041-.035.063c-.01.021-.014.046-.023.068-.01.021-.025.041-.035.062-.01.023-.016.047-.025.068-.01.023-.025.041-.035.064-.01.021-.014.045-.023.068-.01.021-.025.039-.035.062-.01.021-.014.045-.025.068-.01.021-.023.041-.035.062-.01.022-.014.047-.023.069-.01.021-.025.041-.035.063-.012.021-.016.046-.025.068-.01.021-.023.04-.035.062-.01.021-.014.046-.023.067-.01.022-.025.041-.035.063-.01.021-.014.046-.023.068l-.037.062c-.01.023-.014.047-.023.068-.01.023-.025.041-.035.064-.01.021-.014.045-.025.068-.01.021-.023.041-.034.062-.011.022-.015.047-.024.068s-.025.041-.035.062c-.01.022-.014.047-.023.068-.012.022-.025.041-.035.063-.012.022-.016.046-.025.068s-.025.041-.035.063c-.01.021-.014.046-.023.068-.012.021-.025.041-.035.062-.012.023-.016.047-.025.068s-.024.041-.035.062c-.01.023-.014.047-.023.068-.01.023-.025.041-.035.064-.012.023-.016.049-.025.074-.011.02-.023.037-.033.057-.01.021-.014.043-.022.064-.012.023-.028.043-.038.067-.01.022-.015.046-.025.068-.01.021-.023.04-.034.062-.009.022-.015.046-.024.068s-.025.041-.035.063c-.011.023-.016.049-.025.074-.011.02-.023.037-.033.058s-.014.042-.021.063c-.012.022-.027.043-.039.066-.01.021-.014.043-.021.063-.012.023-.027.044-.038.068s-.017.05-.026.073c-.01.021-.023.039-.033.059-.01.022-.014.047-.023.068-.012.022-.025.041-.035.063-.012.022-.016.046-.025.068s-.025.041-.035.063l-.021.062c-.012.023-.027.044-.038.068-.011.023-.017.049-.026.074-.01.02-.023.037-.033.057-.01.023-.014.047-.023.068-.01.023-.025.041-.035.064-.01.021-.015.045-.024.066-.011.023-.024.041-.035.064-.011.021-.015.045-.024.068-.01.021-.025.041-.035.062-.01.022-.014.047-.024.068-.011.022-.024.041-.035.063s-.015.046-.024.068-.025.041-.035.063c-.01.021-.015.046-.024.068l-.035.062c-.011.023-.015.047-.024.068s-.025.041-.035.062c-.01.023-.014.047-.024.068-.01.023-.024.041-.035.064-.01.021-.015.045-.024.068-.01.021-.025.041-.035.062-.01.022-.014.047-.023.068s-.025.041-.035.062c-.01.022-.015.047-.025.068-.01.022-.024.041-.035.063-.01.022-.014.046-.023.068-.011.022-.025.041-.035.063-.01.021-.016.046-.025.068-.01.021-.025.041-.035.062-.01.023-.014.047-.023.068-.011.023-.025.041-.035.064-.011.021-.016.045-.025.068-.01.021-.024.039-.034.062-.011.021-.015.045-.024.066-.01.023-.025.041-.035.064-.01.021-.015.047-.024.068-.011.022-.026.041-.036.063s-.014.046-.023.067c-.01.022-.025.041-.035.063s-.014.046-.024.068-.024.041-.035.063c-.011.021-.015.046-.024.068-.01.021-.025.041-.035.062-.01.023-.014.047-.024.068-.011.023-.024.041-.035.064-.011.021-.015.045-.024.068-.01.021-.025.039-.035.062-.01.021-.014.045-.023.068-.011.021-.025.041-.035.062-.011.022-.016.047-.025.068-.01.022-.025.041-.035.063s-.014.046-.023.067c-.01.022-.025.041-.035.063s-.016.046-.025.068-.025.041-.035.063c-.01.021-.014.046-.023.068-.01.021-.025.041-.035.062-.01.023-.016.047-.025.068-.01.023-.025.041-.035.064-.01.021-.014.045-.023.068-.01.021-.025.041-.035.062-.01.022-.016.047-.025.068s-.023.041-.035.062c-.01.022-.014.047-.023.068-.01.022-.025.041-.035.063s-.016.046-.025.068-.025.041-.035.063c-.01.021-.014.046-.023.067-.01.022-.025.041-.035.063-.01.021-.014.046-.023.068-.011.021-.025.041-.035.062-.011.023-.016.047-.025.068-.01.023-.025.041-.035.064-.01.021-.014.045-.025.068-.01.021-.023.041-.035.062-.01.022-.014.047-.023.068-.01.022-.025.041-.035.063s-.014.046-.025.068c-.008.021-.023.04-.033.062-.012.022-.016.046-.025.068s-.025.041-.035.063c-.01.021-.014.046-.023.068-.012.021-.025.041-.035.062-.01.023-.016.047-.025.068-.01.023-.025.041-.035.064-.01.021-.014.045-.023.066-.01.023-.025.041-.035.064-.01.021-.014.045-.025.068-.01.021-.025.041-.035.062-.01.022-.014.047-.023.068-.01.022-.025.041-.035.063s-.015.046-.025.068c-.01.021-.023.04-.035.062-.01.022-.014.046-.023.068s-.025.041-.035.063c-.01.021-.014.046-.025.068-.01.021-.023.041-.035.062-.01.023-.014.047-.023.068s-.025.041-.035.062c-.01.023-.014.047-.023.068-.01.023-.025.041-.035.064-.012.021-.016.045-.025.068-.01.021-.025.041-.035.062-.01.022-.014.047-.023.068-.012.022-.025.041-.035.063-.012.022-.016.046-.025.068s-.025.041-.035.063c-.01.021-.014.046-.023.068-.01.021-.025.04-.035.062-.01.021-.015.046-.025.068-.01.021-.024.041-.035.062-.01.023-.014.047-.023.068-.01.023-.025.041-.035.064-.01.021-.015.045-.024.066-.011.023-.024.041-.035.064-.011.021-.015.045-.024.068-.01.021-.025.041-.035.062-.01.022-.014.047-.025.068-.01.022-.023.041-.034.063s-.015.046-.024.068-.025.041-.035.063c-.01.021-.015.046-.024.068-.011.021-.025.041-.035.062-.011.023-.015.047-.024.068s-.025.041-.035.062c-.01.023-.014.047-.023.068-.012.023-.025.041-.036.064-.011.021-.015.045-.024.068-.01.021-.025.041-.035.062-.01.022-.014.047-.023.068s-.025.041-.035.062c-.01.022-.015.047-.025.068-.01.022-.024.041-.035.063-.01.022-.014.046-.023.068-.011.022-.025.041-.035.063-.011.021-.015.046-.025.068-.01.021-.025.041-.035.062-.01.023-.014.047-.023.068-.011.023-.025.042-.035.064-.01.021-.016.045-.025.068-.01.021-.024.039-.034.062-.011.021-.015.045-.024.068-.01.021-.025.041-.035.062-.01.022-.015.047-.025.068-.01.022-.024.041-.035.063-.01.022-.014.046-.023.068s-.025.042-.035.063-.015.046-.024.067c-.01.022-.024.041-.035.063-.011.021-.015.046-.024.068-.01.021-.025.041-.035.062-.01.023-.014.047-.024.068-.01.021-.024.041-.034.062-.01.023-.016.047-.025.068-.01.023-.025.041-.035.064-.01.021-.014.045-.023.068-.01.021-.025.041-.035.062-.011.022-.016.047-.025.068-.01.022-.025.041-.035.063s-.014.046-.023.067c-.01.022-.025.041-.035.063s-.015.046-.025.068c-.01.022-.024.041-.035.063-.01.021-.014.046-.023.068-.01.021-.025.041-.035.062-.01.023-.016.047-.025.068-.01.023-.025.041-.035.064-.01.021-.014.045-.023.068-.01.021-.025.041-.035.062-.01.022-.016.047-.025.068s-.023.041-.034.062c-.011.022-.015.047-.024.068-.01.022-.025.041-.035.063s-.014.046-.024.068-.026.042-.036.063-.014.046-.023.067c-.01.022-.025.041-.035.063-.01.021-.014.046-.023.068-.011.021-.025.041-.035.062-.011.023-.016.047-.025.068-.01.023-.025.041-.035.064-.01.021-.014.045-.025.068-.009.021-.023.041-.035.062-.009.022-.014.047-.023.068-.01.022-.025.041-.035.064-.01.021-.014.045-.025.067-.008.021-.023.04-.033.062s-.016.046-.025.068-.025.041-.035.063c-.01.021-.014.046-.023.068-.012.021-.025.041-.035.062-.012.023-.016.047-.025.068s-.025.041-.035.062c-.01.023-.014.047-.023.068-.01.023-.025.041-.035.064-.01.021-.016.045-.025.068-.01.021-.025.041-.035.062-.01.022-.014.047-.023.068-.01.022-.025.041-.035.064-.01.021-.016.045-.025.067s-.024.042-.035.063c-.01.021-.014.046-.023.068-.01.021-.025.04-.035.062-.01.021-.014.046-.023.068l-.037.062c-.01.023-.014.047-.023.068-.01.023-.025.042-.035.064-.01.021-.014.045-.025.068-.01.021-.023.041-.035.062-.01.023-.014.047-.023.068s-.025.041-.035.062c-.01.022-.014.047-.023.068-.01.022-.025.041-.035.063-.012.022-.016.046-.025.068-.01.021-.024.04-.035.062-.01.022-.014.046-.023.068s-.025.041-.035.063c-.01.021-.016.046-.025.068-.01.021-.025.041-.035.062-.01.023-.014.047-.023.068-.01.023-.025.041-.035.064-.01.021-.015.045-.025.066-.01.023-.023.041-.035.064-.01.021-.014.045-.023.068-.01.021-.025.041-.035.062-.01.022-.014.047-.025.068-.01.022-.023.041-.035.063-.01.022-.014.046-.023.068s-.025.042-.035.063-.015.046-.024.068c-.011.021-.024.04-.034.062-.012.021-.016.046-.025.068-.01.021-.025.041-.035.062-.01.023-.014.047-.023.068-.012.023-.025.041-.035.064-.012.021-.016.045-.025.068-.01.021-.025.041-.035.062-.01.022-.014.047-.023.068s-.025.041-.035.062c-.01.022-.015.047-.025.068-.01.022-.024.041-.035.063-.01.022-.014.046-.023.068-.012.022-.025.042-.035.063-1.594 3.521 6.738 10.734 18.611 16.109 11.877 5.375 22.793 6.876 24.387 3.355.011-.023.015-.047.025-.068.01-.023.025-.042.035-.064.01-.021.014-.045.023-.068.011-.021.025-.041.035-.062.011-.023.016-.047.025-.068s.025-.041.034-.062c.011-.022.015-.047.024-.068.01-.022.025-.041.035-.063s.016-.046.025-.068.024-.042.035-.063c.01-.021.014-.046.023-.068.01-.021.025-.041.035-.063s.015-.046.024-.067.024-.041.036-.062c.01-.023.014-.047.023-.068.01-.023.025-.041.035-.064.01-.021.014-.045.025-.068.01-.021.023-.041.034-.062.011-.023.015-.047.024-.068.01-.022.025-.041.035-.064.01-.021.014-.045.024-.067.01-.021.024-.04.034-.062.011-.022.016-.046.025-.068s.025-.042.035-.063.014-.046.023-.068c.011-.021.025-.041.035-.063.011-.022.016-.046.025-.067.01-.023.025-.042.035-.064.01-.021.014-.045.023-.066.01-.023.025-.041.035-.064.01-.021.015-.045.025-.068.01-.021.024-.041.035-.062.01-.022.014-.047.023-.068s.025-.041.035-.062c.01-.022.014-.047.024-.068.011-.022.024-.041.035-.063s.015-.046.024-.068.025-.042.035-.063.014-.046.024-.068l.035-.062c.011-.023.015-.047.024-.068s.025-.041.035-.062c.01-.023.014-.047.023-.068.011-.023.025-.041.035-.064.011-.021.016-.045.025-.068.01-.021.025-.041.035-.062.01-.022.014-.047.024-.068.01-.022.024-.041.036-.064.009-.021.014-.045.023-.067s.025-.042.035-.063c.01-.022.014-.046.023-.068.01-.021.025-.041.035-.062s.015-.046.025-.068c.01-.021.023-.041.035-.062.01-.023.014-.047.023-.068.011-.023.025-.042.035-.064.011-.021.016-.045.024-.066.011-.023.024-.041.034-.064.012-.021.016-.045.025-.068.01-.021.025-.041.035-.062.01-.022.014-.047.024-.068.011-.022.026-.041.036-.064.01-.021.014-.045.023-.067s.025-.042.035-.063.016-.046.025-.068c.01-.021.023-.041.035-.063.01-.022.014-.046.023-.067s.025-.041.035-.062c.01-.023.014-.047.023-.068.012-.023.025-.042.035-.064.012-.021.016-.045.025-.068.01-.021.025-.041.035-.062.01-.023.014-.047.023-.068s.025-.041.035-.062c.011-.022.016-.047.025-.068.01-.022.025-.041.035-.063s.014-.046.023-.068.025-.042.035-.063.016-.046.025-.068c.01-.021.025-.041.035-.063s.014-.046.023-.067c.01-.023.025-.042.035-.064.01-.021.016-.046.025-.068.01-.021.023-.04.035-.062.01-.021.014-.045.023-.068.01-.021.025-.041.035-.062.01-.023.014-.047.025-.068.01-.022.024-.041.035-.064.01-.021.014-.045.023-.067s.025-.042.035-.063c.01-.022.015-.047.023-.067.012-.022.025-.042.035-.063.012-.021.016-.046.025-.068.01-.021.025-.041.035-.063s.015-.046.023-.067c.01-.021.025-.041.035-.062.01-.023.016-.047.025-.068.01-.023.025-.041.035-.064.01-.021.014-.045.023-.068.01-.021.025-.041.035-.062.01-.022.016-.047.025-.068.01-.022.025-.041.035-.064.01-.021.014-.045.023-.066.01-.022.025-.041.035-.063s.015-.046.025-.068c.01-.022.024-.042.035-.063.01-.021.014-.046.023-.068.01-.021.025-.041.035-.063s.015-.046.025-.067c.01-.023.024-.042.035-.064.01-.021.014-.045.023-.068.01-.021.025-.041.035-.062.011-.023.016-.047.025-.068s.024-.041.034-.062c.011-.022.015-.047.024-.068.01-.022.025-.041.035-.064.01-.021.015-.045.025-.067.01-.022.025-.042.035-.063.01-.022.014-.047.023-.067.01-.022.025-.042.035-.063s.014-.046.024-.068c.009-.021.024-.041.035-.062.009-.023.015-.047.024-.068.01-.023.025-.042.035-.064.01-.021.014-.045.024-.068l.035-.062c.011-.023.015-.047.024-.068.01-.022.025-.041.035-.064.01-.021.014-.045.024-.068.01-.021.024-.039.034-.062.012-.021.016-.045.025-.067s.025-.042.035-.063c.01-.022.014-.046.023-.068.011-.021.025-.041.035-.063.011-.022.016-.046.025-.067s.024-.041.035-.062c.01-.023.014-.047.023-.068.01-.023.025-.042.035-.064.01-.021.015-.045.025-.068.01-.021.024-.041.035-.062.01-.023.014-.047.023-.068.01-.022.025-.041.035-.064.01-.021.015-.045.025-.068.01-.021.024-.041.035-.062.01-.022.014-.047.023-.068s.025-.041.035-.062.014-.046.024-.068c.011-.021.024-.041.035-.063s.015-.046.024-.067c.01-.023.025-.042.035-.064.01-.021.014-.046.023-.066.011-.023.025-.042.035-.064.011-.021.016-.045.025-.068.01-.021.025-.041.035-.062.01-.023.014-.047.024-.068.01-.022.024-.041.035-.064.01-.021.015-.045.024-.067.01-.021.024-.04.035-.062.01-.022.014-.046.023-.068s.025-.042.035-.063.015-.046.025-.068c.01-.021.024-.041.035-.063.01-.022.014-.046.023-.067.011-.023.025-.042.035-.064.011-.021.016-.045.024-.066.011-.023.024-.042.035-.064.011-.021.015-.045.024-.068.01-.021.025-.041.035-.062.01-.023.014-.047.024-.068.011-.022.024-.041.035-.064.011-.021.015-.045.024-.067s.025-.042.035-.063c.01-.022.014-.047.025-.068.01-.021.025-.041.035-.063s.014-.046.023-.068c.01-.021.025-.04.035-.062s.014-.046.024-.067c.01-.023.024-.042.034-.064.012-.021.016-.045.025-.068.01-.021.025-.041.035-.062.01-.023.014-.047.023-.068.011-.021.025-.041.035-.062.011-.022.016-.047.025-.068.01-.022.025-.041.035-.064.01-.021.014-.045.023-.067.011-.022.025-.042.035-.063.012-.022.016-.047.025-.068s.025-.041.035-.063.014-.046.023-.067c.012-.023.025-.042.035-.064.01-.021.016-.046.025-.068.01-.021.023-.04.035-.062.01-.021.014-.045.023-.068.01-.021.025-.041.035-.062.01-.023.014-.047.025-.068.01-.022.023-.041.035-.064.01-.021.014-.045.023-.066.01-.022.025-.041.035-.064.01-.021.014-.045.023-.067.012-.022.025-.042.035-.063.012-.022.016-.047.025-.068s.025-.041.035-.063.014-.046.023-.067c.012-.023.026-.042.035-.064.012-.021.016-.046.025-.068.01-.021.025-.04.035-.062.01-.021.014-.045.023-.068.01-.021.026-.041.035-.064.012-.021.016-.045.025-.068.01-.021.025-.039.035-.062.01-.021.014-.045.023-.066.01-.022.025-.041.035-.064.01-.021.014-.045.025-.067.01-.022.023-.042.035-.063.01-.021.014-.046.023-.068.01-.021.025-.041.035-.063s.014-.046.025-.067c.01-.023.024-.042.035-.064.01-.021.014-.046.023-.068.01-.021.025-.041.035-.062.01-.023.016-.047.025-.068s.024-.041.033-.062c.012-.023.016-.047.025-.068.01-.022.025-.041.035-.064.01-.021.015-.045.023-.067.012-.022.026-.042.037-.063.01-.022.014-.047.023-.067.01-.022.025-.042.035-.063s.014-.046.023-.068c.01-.021.025-.041.036-.063.009-.022.015-.046.024-.067.01-.023.025-.042.035-.064.01-.021.014-.046.024-.068l.035-.062c.011-.023.015-.047.024-.068.01-.023.025-.041.035-.064.01-.021.014-.045.024-.068.009-.021.024-.039.034-.062.01-.021.016-.045.025-.067s.025-.042.035-.063c.01-.022.014-.047.023-.068.011-.021.025-.041.035-.063.012-.022.016-.046.025-.067s.024-.041.035-.063c.01-.022.014-.046.023-.067.01-.023.025-.042.035-.064.01-.021.015-.045.025-.068.01-.021.024-.041.035-.062.01-.023.014-.047.023-.068.01-.022.025-.041.035-.064.01-.021.015-.045.025-.068.01-.021.024-.041.035-.062.01-.022.014-.047.023-.068s.025-.041.035-.062c.01-.022.014-.047.024-.068s.024-.041.035-.063c.011-.024.017-.05.026-.073.01-.021.023-.038.033-.059.008-.021.012-.043.021-.062.012-.023.027-.044.037-.068.01-.02.014-.041.023-.062.012-.023.027-.045.037-.068.012-.023.017-.049.027-.074.01-.02.023-.037.031-.059.011-.021.016-.045.025-.068.01-.021.025-.041.035-.062.01-.022.014-.047.024-.068.009-.021.024-.041.034-.062.01-.022.015-.047.025-.068.01-.021.024-.041.035-.063.01-.022.014-.046.023-.067.011-.023.025-.042.035-.064.011-.021.015-.046.025-.068.01-.021.025-.041.035-.062.01-.023.014-.047.023-.068s.025-.041.035-.062c.01-.023.015-.047.024-.068.011-.022.025-.041.035-.064.011-.021.015-.045.024-.068.01-.021.025-.041.035-.062.012-.023.016-.05.025-.074.01-.02.025-.037.033-.059.01-.02.014-.041.023-.062.01-.022.025-.043.037-.067.01-.021.014-.042.021-.063.012-.021.027-.043.039-.066.01-.024.016-.051.025-.074.01-.02.023-.039.033-.059.01-.023.014-.047.023-.068.012-.023.025-.041.037-.064.01-.021.014-.045.023-.066.01-.022.025-.041.035-.064.01-.021.014-.045.023-.068.011-.021.025-.041.035-.062.011-.022.016-.047.025-.068s.025-.041.035-.063.014-.046.023-.068c.011-.022.025-.041.035-.063.012-.021.016-.046.025-.068.01-.021.023-.04.035-.062.01-.021.014-.046.023-.068.01-.021.025-.041.035-.062.01-.023.014-.047.025-.068.01-.023.023-.041.035-.064.01-.023.016-.049.025-.072.01-.02.023-.037.033-.059.009-.02.013-.041.021-.062.012-.023.027-.045.037-.068.012-.022.016-.047.025-.068s.025-.041.035-.063.014-.046.023-.068c.012-.022.025-.041.035-.063.012-.021.016-.046.025-.068.01-.021.025-.041.035-.062.01-.023.014-.047.023-.068.012-.021.025-.041.035-.062.011-.023.016-.047.025-.068.01-.023.025-.041.035-.064.01-.021.014-.045.023-.068.01-.021.025-.041.035-.062.01-.022.016-.047.025-.067.01-.022.023-.042.035-.063.01-.022.014-.047.023-.068s.025-.041.035-.063.014-.046.025-.068c.01-.022.023-.041.035-.063.009-.02.014-.041.021-.062.012-.023.027-.043.038-.067s.017-.05.026-.074c.01-.021.023-.038.031-.058.012-.023.016-.047.025-.068.01-.022.025-.041.035-.064.01-.02.014-.041.021-.062.012-.022.027-.043.039-.066.012-.026.018-.055.027-.08.01-.02.022-.035.031-.055.01-.02.014-.041.021-.062.012-.023.027-.045.039-.068.01-.021.014-.046.023-.066.01-.023.025-.042.035-.064.01-.021.014-.046.023-.068.01-.021.025-.041.036-.062.009-.021.013-.043.022-.063.011-.022.027-.044.037-.067.012-.023.018-.049.026-.074.011-.02.024-.039.034-.059.01-.022.014-.047.023-.068s.025-.041.035-.062c.01-.022.014-.047.023-.068.01-.022.025-.041.035-.063s.016-.046.025-.068.025-.041.035-.063c.01-.021.014-.046.023-.066.01-.023.025-.042.035-.064.01-.021.015-.046.025-.068.01-.021.024-.041.035-.062.01-.023.014-.047.023-.068.01-.023.025-.041.035-.064.01-.021.015-.045.025-.068.01-.021.023-.039.035-.062.01-.021.014-.045.023-.068.01-.021.025-.041.035-.062.01-.022.014-.047.025-.068.01-.021.023-.041.034-.063s.015-.046.024-.067.025-.041.035-.063.015-.047.023-.067c.012-.023.026-.043.036-.064.011-.025.017-.051.026-.074.01-.02.023-.037.033-.057.008-.021.012-.043.021-.064.012-.023.027-.043.037-.068.011-.021.016-.045.025-.068.01-.021.024-.039.035-.062.01-.021.014-.045.023-.068.01-.021.025-.041.035-.062.01-.022.015-.047.025-.068.01-.021.024-.041.035-.063.01-.022.014-.046.023-.068s.025-.041.035-.063c.011-.021.015-.046.025-.068.01-.021.024-.041.035-.062.01-.023.014-.047.023-.068.011-.023.025-.041.035-.064.011-.021.016-.045.024-.066.011-.023.025-.041.035-.064.011-.021.015-.045.024-.068.01-.021.025-.039.035-.062.01-.021.014-.045.024-.067.01-.022.024-.042.035-.063.009-.021.014-.042.022-.062.012-.023.027-.045.037-.068.011-.027.016-.053.027-.077z"/><path fill="#33495F" d="M349.957 71.479c1.595-3.521-6.736-10.734-18.612-16.109-11.874-5.375-22.792-6.877-24.386-3.355-.604 1.332.217 3.193 2.109 5.283l-11.959 26.419c.645.712 1.414 1.45 2.295 2.202l11.959-26.42c1.389 1.189 3.056 2.414 4.943 3.629l-11.958 26.42a63.512 63.512 0 0 0 2.581 1.572l11.959-26.42a74.255 74.255 0 0 0 5.322 2.791l-11.959 26.42c.447.213.901.425 1.359.633.461.207.918.408 1.374.604l11.96-26.419a74.215 74.215 0 0 0 5.609 2.157l-11.959 26.42c.982.332 1.947.634 2.885.902l11.959-26.42c2.16.617 4.178 1.061 5.988 1.321l-11.96 26.419c1.147.165 2.21.257 3.171.271l11.959-26.42c2.82.043 4.759-.568 5.361-1.9z"/><path fill="#2A3E4F" d="M215.801 106.938a2.717 2.717 0 0 1-1.592 3.496l-6.662 2.498a2.714 2.714 0 0 1-3.496-1.59l-6.197-16.531a2.715 2.715 0 0 1 1.59-3.497l6.662-2.499a2.717 2.717 0 0 1 3.496 1.59l6.199 16.533z"/><path fill="#2A3E4F" d="M212.478 82.215l-.009-.033c-.004-.012-.012-.021-.016-.032l-.01-.034c-.004-.012-.01-.021-.014-.031-.002-.012-.006-.025-.011-.038s-.013-.024-.019-.038l-.008-.029.029.088c-.004-.013.033.078.033.078-.703-1.879-5.141 1.393-11.266 3.691-6.127 2.295-11.621 2.746-10.916 4.627l-.029-.086c.004.012-.016-.033-.012-.023.005.012 0-.008.004.004.005.011.001.008.005.021.003.012.009.014.014.024.003.013.004.02.009.031.002.014.01.02.014.031.005.012.006.021.008.034.006.013.014.024.02.036.002.01.004.021.008.031.004.012.012.021.016.033s.008.023.01.035c.004.01.011.02.015.029.004.013.005.026.011.038.004.012.012.021.016.032.002.012.006.025.01.035l.014.031c.004.011.006.023.012.037.005.012.011.021.016.034.004.011.006.022.008.032.006.014.013.023.016.033.006.012.008.025.012.037.002.01.01.019.014.029.006.012.007.025.012.037.005.014.012.023.016.036l.01.032c.004.011.012.021.016.032.004.012.006.024.01.034.004.014.012.023.016.033.004.012.006.023.009.037.005.01.011.02.015.031.006.012.008.023.012.035.005.012.01.02.016.029.002.014.006.027.008.037.006.014.014.024.018.036l.01.034c.004.012.012.021.016.031.004.012.004.023.01.035.004.012.012.021.016.033l.01.035c.005.012.012.021.018.035.002.01.004.021.01.033l.012.029c.006.012.006.025.012.037.004.012.011.021.017.033l.009.035c.004.012.012.021.016.033l.011.033c.003.013.011.023.015.034l.01.034c.004.014.014.023.016.035l.01.033c.004.011.01.02.016.029.005.014.006.027.01.039.006.012.012.021.016.031l.01.035c.004.012.012.023.016.033l.01.037.016.031.01.035c.004.012.012.021.016.033l.01.034.016.032c.004.012.006.025.01.035s.011.02.014.031c.006.012.006.025.012.037.006.014.012.023.016.035.006.012.008.023.012.033.002.012.01.021.014.033l.011.034c.004.011.011.021.015.034l.01.033.016.033.012.035c.004.012.009.021.014.033.004.012.006.023.012.033.004.014.011.023.016.035l.008.034c.006.013.012.021.016.032.006.012.006.025.012.037.003.01.01.02.016.031a.22.22 0 0 0 .008.035c.004.01.012.021.017.031l.009.036.016.032c.006.012.006.025.01.036.004.012.012.021.016.032.006.012.004.023.01.035.004.012.012.021.016.032.005.013.006.024.012.036.004.011.01.02.016.031.003.013.004.023.01.036.003.011.01.021.014.031a.505.505 0 0 0 .012.036c.004.014.011.021.014.034a.338.338 0 0 1 .011.034c.003.011.011.02.015.029.004.014.006.025.012.037.004.014.01.025.016.037.002.01.004.021.008.032.005.011.012.021.018.032l.009.035c.005.012.011.021.017.033.004.012.005.021.008.035.004.011.012.021.018.032.004.011.004.024.01.036.004.011.012.021.015.031.005.012.007.025.009.036l.016.032c.006.011.008.023.01.035.004.012.012.021.016.033l.012.035.014.031c.005.014.006.023.012.037.004.01.01.02.016.031.004.012.006.025.01.035.006.014.012.021.016.033.002.012.006.023.01.035.002.012.01.021.014.032.006.012.007.022.012.034l.016.033c.002.012.006.023.008.037.006.01.013.02.018.031.004.012.005.023.01.035.004.012.01.021.014.033.006.012.006.023.012.035.004.011.01.021.016.032l.01.036c.004.01.012.021.016.031l.01.036c.004.011.01.021.016.032l.01.035c.002.012.012.021.014.033.006.01.007.023.012.034.004.012.01.022.014.032.006.012.008.024.01.035.006.012.013.021.018.033l.01.035c.004.012.012.023.017.035.004.01.005.022.009.031.004.012.01.021.014.032.006.013.008.024.012.036s.012.021.016.033l.01.035c.004.012.012.021.016.033l.01.035.018.035a.157.157 0 0 0 .008.031c.004.012.01.021.016.031l.01.037c.004.012.01.02.014.03.005.013.006.026.012.038.004.013.012.023.016.035l.01.033c.004.01.012.021.016.031l.01.036.014.032c.007.012.008.024.012.037.005.01.01.019.016.027.003.014.004.027.008.039.006.013.014.023.02.035.002.01.004.023.008.032.004.011.011.022.016.032l.01.035c.004.012.012.021.014.033.006.012.008.023.012.035s.012.021.016.033l.01.035c.004.012.012.021.016.033l.01.033c.004.012.012.021.016.035l.01.033c.004.012.01.021.016.033.004.012.006.023.011.035.003.012.01.021.015.033.004.012.004.022.01.034.004.011.012.022.016.032l.01.037c.006.011.012.021.016.031.006.012.006.024.01.035.005.012.012.021.016.033l.01.035.016.031.011.037c.003.01.011.021.015.031.006.012.006.023.01.035s.012.021.014.033c.006.011.008.024.012.035.005.012.012.021.018.033a.22.22 0 0 0 .008.035c.006.012.012.021.016.033.004.01.006.021.012.033.002.012.01.021.014.031l.01.036c.004.013.012.021.016.034l.01.034c.004.013.01.022.016.033.004.011.006.022.011.034.003.012.011.022.015.033l.01.036c.004.011.012.021.016.032a.115.115 0 0 1 .01.035c.006.012.012.021.016.033.006.012.006.023.01.035.006.012.012.021.016.033.004.01.006.021.012.035.003.01.01.02.014.031.005.011.006.024.01.035l.016.032.01.036.018.031c.002.014.004.023.009.035l.015.033.01.035c.004.012.012.021.016.033.006.012.006.023.01.035.006.012.012.021.016.033.005.012.006.023.01.035s.012.021.018.032c.002.011.004.023.01.034.002.013.012.022.014.035.004.01.006.021.01.034l.016.032c.006.011.006.023.01.035.006.012.013.021.017.033.005.012.005.023.009.033l.016.033c.004.012.006.024.012.037l.014.031c.006.012.006.023.012.036l.014.031c.005.012.006.024.012.036.004.012.012.021.016.033.004.01.004.023.009.033.003.012.012.023.015.033.006.012.008.024.012.036l.014.032c.006.012.007.023.01.035.004.011.012.021.018.032.003.013.004.024.01.034.004.014.01.021.016.034.004.011.004.023.01.034.004.012.011.021.016.033.002.012.006.023.01.035s.012.021.014.033l.012.034c.005.013.012.021.015.032a.158.158 0 0 1 .009.036c.006.011.012.022.016.033.005.011.007.022.012.034.004.013.012.021.016.033s.004.023.008.035c.006.012.012.021.016.032.006.012.006.022.012.036.004.011.012.021.016.031.004.012.004.023.01.035.003.012.011.021.016.032.004.012.004.024.01.036.004.012.01.021.016.032l.009.036c.005.012.013.021.017.032.004.012.004.024.01.034.004.012.01.022.016.033.004.012.004.023.01.035.004.012.012.021.014.033.006.01.008.023.012.035s.01.021.016.032l.01.035c.005.013.012.021.015.034l.011.033.015.033c.005.012.007.023.011.035.004.013.011.021.015.032l.011.034c.004.013.01.023.014.034.006.012.007.022.012.034.005.013.01.023.016.033.004.012.004.023.01.035.004.012.011.021.016.033.004.011.004.023.01.035.004.012.012.021.016.032l.01.036c.004.012.012.021.016.033l.01.033.016.033.01.035c.004.012.011.021.014.033.006.01.008.023.012.035.004.011.01.02.016.032a.152.152 0 0 0 .01.034l.016.033.01.035c.004.012.012.021.015.033.005.012.007.023.013.035.002.013.01.021.012.033.006.012.008.023.012.033.004.014.012.023.016.035l.01.035c.004.01.013.021.016.033l.01.033c.004.012.012.021.016.033l.01.035c.004.012.012.021.016.032l.01.036c.004.012.012.021.016.033.006.01.006.023.01.033.005.012.012.021.016.033l.01.035c.004.011.011.021.016.031.004.012.006.025.01.035.004.013.011.021.016.034l.01.034c.004.012.01.021.016.033l.01.035c.004.012.012.021.016.033l.01.035c.005.011.012.021.016.033l.01.033c.004.013.012.021.016.033l.01.035c.004.012.01.023.014.033.006.011.008.023.013.035.003.012.011.021.015.033.006.012.006.022.01.035.006.012.014.02.016.033.005.011.006.021.01.033a.491.491 0 0 0 .018.033c.004.012.004.024.008.036.006.011.012.021.016.032.006.012.006.023.01.035s.012.021.016.031c.006.013.006.025.01.035.005.014.012.021.016.034a.162.162 0 0 1 .01.034l.017.033c.004.01.005.023.009.035.005.011.013.021.016.032l.01.035c.004.011.012.021.016.032.006.013.006.025.011.035.005.013.011.021.015.033.006.012.006.024.01.035l.018.033a.115.115 0 0 0 .01.035c.003.012.01.021.014.033.006.012.006.021.012.034.004.012.012.021.014.034l.01.033.018.035c.004.01.004.022.008.033.004.012.012.021.016.032.006.012.006.024.01.036.005.012.012.021.016.031.006.013.006.025.01.036l.018.032.01.035c.004.012.01.021.016.033.004.01.004.023.01.035.002.012.011.021.016.033.004.01.005.023.009.034.003.011.012.021.015.032l.011.035c.005.012.011.022.017.033.004.012.005.023.01.035.004.012.01.021.014.032.004.012.006.024.012.036.004.012.012.021.016.031.004.014.004.025.009.035.005.013.013.021.015.034.004.011.006.023.012.034.002.012.01.023.014.033.006.012.006.023.012.035.004.012.011.021.014.033.006.011.006.021.01.033.006.012.013.023.016.033.006.014.007.023.01.035l.018.033.01.035c.004.012.01.021.014.033.006.01.006.023.012.035.004.011.011.021.016.032l.01.036c.004.01.01.02.016.031l.01.035c.004.012.01.022.014.033.006.012.008.023.012.035s.01.021.014.033c.006.01.006.023.012.034.004.012.012.021.016.033.004.013.004.022.01.034.004.012.01.021.016.033.004.012.004.023.01.035.004.012.012.021.014.033.006.011.008.023.012.035s.012.02.016.033c.004.011.004.023.01.033.004.014.011.023.015.034.005.011.007.023.011.034.004.012.011.021.016.033l.01.035c.004.012.01.021.014.031.006.012.007.023.012.037.682 1.816 6.199 1.428 12.324-.869 6.127-2.296 10.539-5.631 9.858-7.449-.005-.01-.011-.02-.015-.031-.006-.012-.006-.023-.012-.035-.004-.012-.01-.022-.016-.033a.22.22 0 0 1-.008-.035c-.005-.012-.014-.021-.017-.033l-.011-.034c-.004-.012-.01-.021-.016-.032l-.01-.036c-.004-.011-.01-.021-.016-.032-.003-.012-.004-.023-.01-.035-.004-.012-.012-.021-.016-.033-.004-.01-.006-.023-.01-.035s-.01-.021-.015-.031c-.005-.013-.006-.023-.01-.035-.005-.012-.011-.021-.017-.033-.004-.012-.004-.023-.01-.035-.004-.011-.012-.021-.016-.033l-.01-.035c-.004-.01-.012-.021-.015-.032-.005-.012-.007-.024-.01-.035-.005-.013-.013-.021-.017-.034l-.01-.033c-.002-.012-.01-.021-.014-.033-.006-.012-.008-.023-.012-.035s-.012-.022-.016-.033l-.01-.035c-.004-.01-.012-.021-.016-.033-.004-.01-.006-.021-.01-.034-.004-.012-.012-.021-.016-.032l-.009-.036c-.005-.011-.011-.021-.015-.032-.006-.012-.008-.022-.012-.035-.004-.012-.012-.021-.016-.033l-.01-.034c-.004-.011-.011-.021-.016-.032l-.01-.035c-.004-.012-.01-.021-.016-.033-.004-.012-.004-.023-.01-.035-.004-.012-.012-.021-.016-.032l-.01-.036c-.004-.012-.012-.021-.016-.032l-.01-.034c-.004-.011-.011-.021-.016-.033a.133.133 0 0 0-.01-.034c-.002-.013-.012-.022-.016-.034s-.006-.023-.012-.035c-.002-.012-.01-.022-.014-.033-.004-.01-.006-.022-.01-.035l-.016-.033a.258.258 0 0 1-.01-.033c-.006-.013-.012-.022-.016-.033l-.01-.035c-.004-.012-.012-.021-.016-.033l-.01-.035c-.004-.01-.012-.021-.016-.033-.006-.01-.006-.023-.01-.035-.004-.01-.012-.02-.016-.031s-.004-.023-.01-.035c-.004-.012-.012-.021-.018-.033-.002-.011-.004-.023-.01-.035-.002-.012-.01-.021-.014-.033-.004-.01-.006-.023-.01-.035l-.016-.031-.01-.035c-.006-.012-.012-.021-.016-.033a.337.337 0 0 0-.01-.034c-.003-.013-.012-.022-.014-.034-.006-.012-.008-.023-.014-.035-.004-.01-.01-.021-.014-.033-.005-.01-.006-.023-.012-.033-.002-.012-.01-.021-.014-.033s-.006-.023-.011-.035-.011-.021-.015-.033l-.01-.034c-.004-.013-.011-.022-.016-.034l-.01-.035c-.005-.011-.012-.021-.016-.033l-.01-.033c-.004-.012-.012-.021-.016-.033-.006-.012-.006-.024-.01-.035-.006-.012-.012-.021-.016-.033-.006-.011-.006-.023-.012-.035-.004-.012-.01-.021-.014-.033-.004-.01-.006-.023-.011-.035-.003-.01-.011-.021-.016-.031l-.01-.035c-.003-.012-.009-.021-.015-.033l-.01-.035c-.004-.011-.012-.021-.016-.031-.006-.014-.006-.025-.012-.037-.004-.012-.011-.021-.014-.031-.005-.012-.006-.023-.01-.035-.006-.012-.012-.021-.016-.033s-.006-.023-.012-.035c-.004-.011-.01-.022-.016-.033a.124.124 0 0 0-.01-.035c-.002-.012-.01-.021-.014-.033-.005-.01-.006-.022-.012-.033-.004-.013-.01-.022-.014-.033-.004-.012-.008-.023-.01-.035-.006-.012-.012-.021-.016-.033-.006-.012-.006-.021-.01-.035-.005-.012-.012-.021-.016-.032-.006-.013-.006-.024-.012-.036-.002-.01-.01-.021-.014-.032-.005-.011-.006-.024-.01-.034-.004-.012-.012-.021-.017-.033l-.01-.035c-.004-.011-.011-.021-.015-.033l-.011-.035c-.003-.011-.011-.021-.015-.033-.006-.012-.007-.023-.012-.035-.004-.012-.01-.021-.014-.031-.004-.012-.008-.023-.01-.035-.006-.012-.012-.021-.016-.033-.005-.012-.006-.023-.012-.035-.004-.012-.01-.021-.016-.032-.004-.013-.004-.023-.01-.036l-.014-.031c-.004-.012-.007-.024-.012-.035-.004-.012-.01-.021-.014-.033l-.012-.035c-.004-.012-.01-.021-.016-.033-.004-.012-.004-.022-.009-.035-.004-.012-.011-.021-.017-.033-.004-.012-.005-.022-.01-.034-.004-.012-.01-.022-.014-.033-.006-.011-.008-.022-.012-.034s-.01-.021-.016-.033c-.003-.012-.004-.023-.009-.035s-.011-.021-.017-.033c-.004-.01-.004-.022-.009-.035-.004-.011-.013-.021-.017-.032-.004-.013-.005-.024-.011-.036a.147.147 0 0 0-.015-.031l-.008-.035-.018-.032-.01-.036c-.004-.012-.01-.021-.016-.033-.004-.01-.005-.022-.01-.035-.004-.011-.012-.021-.016-.031-.004-.012-.005-.025-.01-.036-.004-.011-.012-.021-.014-.032l-.012-.035c-.005-.012-.012-.021-.016-.033s-.004-.022-.009-.035c-.005-.01-.012-.021-.015-.032-.006-.011-.007-.023-.012-.035-.004-.011-.01-.022-.016-.034-.004-.01-.005-.021-.01-.033-.004-.012-.01-.021-.016-.033l-.01-.035c-.004-.012-.01-.021-.016-.033-.004-.011-.004-.021-.01-.035-.004-.01-.012-.021-.016-.032s-.006-.024-.009-.036l-.017-.031-.01-.035c-.004-.012-.012-.021-.016-.033l-.01-.035c-.004-.012-.011-.021-.014-.031-.006-.012-.007-.025-.012-.037-.004-.01-.012-.021-.016-.031l-.01-.035c-.004-.012-.01-.021-.016-.033l-.01-.033c-.004-.012-.012-.023-.016-.033l-.01-.036c-.004-.012-.012-.021-.015-.034-.005-.01-.007-.022-.011-.033-.004-.012-.012-.021-.014-.033-.006-.012-.008-.023-.012-.035-.005-.011-.012-.021-.016-.033l-.01-.033c-.004-.014-.01-.022-.016-.035-.004-.01-.006-.021-.01-.035-.004-.01-.012-.021-.016-.032l-.01-.034c-.004-.012-.01-.021-.016-.033l-.01-.035c-.006-.012-.012-.021-.016-.031l-.01-.037a.147.147 0 0 1-.015-.031c-.005-.012-.007-.025-.013-.037-.002-.01-.009-.02-.014-.031-.004-.012-.005-.023-.01-.035-.004-.012-.01-.021-.016-.033-.004-.012-.005-.023-.01-.033-.004-.012-.012-.023-.018-.034-.004-.013-.004-.023-.008-.035s-.012-.021-.016-.034c-.004-.01-.006-.021-.01-.034-.004-.011-.012-.021-.016-.032l-.01-.035c-.004-.012-.012-.021-.016-.033l-.01-.033c-.004-.014-.012-.022-.016-.035-.006-.01-.006-.021-.012-.033-.002-.012-.008-.022-.014-.033l-.01-.035c-.004-.011-.01-.021-.016-.033-.004-.012-.008-.022-.01-.035-.006-.012-.012-.021-.016-.033-.005-.011-.006-.023-.01-.035-.005-.012-.012-.021-.016-.031-.004-.012-.006-.023-.012-.036-.004-.011-.01-.021-.015-.032l-.009-.035c-.006-.012-.012-.021-.016-.033-.005-.01-.006-.022-.01-.034-.004-.011-.012-.022-.016-.032l-.01-.036-.018-.032a.22.22 0 0 0-.008-.035c-.006-.012-.012-.021-.016-.033-.006-.012-.006-.023-.01-.034-.006-.012-.012-.022-.016-.034-.006-.01-.006-.022-.011-.034l-.015-.032c-.006-.012-.006-.023-.011-.036-.004-.011-.011-.021-.015-.034l-.01-.033c-.004-.012-.012-.021-.016-.033l-.012-.035-.014-.032c-.004-.012-.008-.023-.01-.034l-.016-.033-.01-.035c-.006-.011-.012-.021-.016-.033-.005-.012-.006-.023-.01-.035-.006-.012-.012-.021-.016-.033-.005-.01-.006-.022-.01-.034-.005-.012-.012-.021-.017-.033-.005-.011-.005-.024-.01-.035s-.011-.021-.015-.032c-.006-.012-.006-.023-.011-.035s-.013-.021-.015-.033c-.006-.012-.008-.023-.012-.034-.004-.012-.01-.022-.015-.032a.158.158 0 0 1-.009-.036c-.006-.012-.012-.021-.016-.032-.006-.012-.006-.023-.012-.037a.219.219 0 0 0-.016-.03.154.154 0 0 0-.008-.034c-.006-.014-.012-.022-.018-.035a.18.18 0 0 0-.01-.033c-.004-.013-.01-.023-.014-.034-.006-.011-.008-.023-.012-.034-.002-.012-.01-.023-.014-.033a.115.115 0 0 1-.01-.035l-.018-.033c-.004-.012-.005-.023-.008-.033-.006-.014-.012-.023-.016-.035a.09.09 0 0 1-.01-.035l-.018-.032c-.004-.011-.004-.024-.01-.036-.003-.01-.011-.021-.016-.033l-.009-.033-.015-.029c-.006-.013-.006-.025-.011-.038-.005-.011-.011-.02-.014-.03-.005-.014-.007-.025-.013-.037-.002-.012-.011-.023-.016-.037-.004-.01-.004-.021-.01-.031-.004-.012-.01-.021-.014-.032-.006-.013-.006-.024-.01-.034-.006-.014-.012-.022-.018-.035l-.01-.033c-.004-.012-.012-.021-.014-.033-.005-.012-.006-.023-.012-.035-.004-.011-.011-.021-.015-.033-.005-.012-.007-.023-.011-.035l-.016-.033-.01-.033c-.004-.014-.01-.023-.016-.034-.004-.011-.005-.022-.01-.036l-.014-.031c-.006-.012-.008-.023-.012-.035s-.012-.021-.016-.033-.004-.023-.008-.035a.312.312 0 0 1-.02-.035.187.187 0 0 1-.008-.032c-.004-.011-.01-.021-.014-.029-.006-.013-.008-.026-.012-.039l-.014-.03-.011-.037-.017-.035c-.004-.01-.006-.022-.009-.031l-.017-.035a.219.219 0 0 1-.01-.034c-.006-.013-.012-.021-.014-.03-.006-.014-.008-.025-.012-.037-.004-.011-.011-.021-.016-.033l-.01-.035c-.006-.012-.012-.021-.016-.033-.005-.012-.006-.023-.01-.033-.005-.014-.012-.023-.016-.034l-.01-.034c-.004-.012-.012-.023-.016-.034s-.006-.022-.008-.034c-.006-.012-.014-.021-.018-.033l-.01-.034c-.004-.011-.01-.022-.016-.034-.004-.01-.006-.023-.01-.034l-.017-.034-.009-.033a.164.164 0 0 0-.016-.029c-.004-.013-.004-.025-.01-.039-.006-.011-.012-.021-.014-.032-.006-.011-.008-.023-.012-.034-.004-.013-.011-.023-.016-.035l-.012-.034c-.002-.011-.008-.021-.012-.032-.006-.012-.006-.023-.012-.035-.004-.012-.012-.021-.016-.032-.006-.012-.006-.024-.01-.034-.004-.012-.012-.023-.016-.034l-.01-.034c-.006-.014-.012-.021-.016-.033l-.01-.035c-.005-.012-.012-.021-.016-.033l-.01-.035c-.004-.012-.012-.021-.016-.033-.004-.01-.006-.021-.01-.034-.004-.012-.011-.022-.016-.033a.19.19 0 0 1-.01-.034c-.004-.012-.011-.021-.016-.03a.164.164 0 0 0-.01-.038c-.004-.013-.012-.023-.016-.035s-.006-.023-.01-.032c-.004-.012-.012-.022-.016-.033-.006-.011-.006-.023-.01-.034-.004-.012-.01-.02-.016-.031-.002-.012-.004-.024-.009-.037l-.019-.039-.009-.029c-.003-.009-.011-.02-.015-.029-.004-.013-.006-.025-.011-.037l-.015-.034-.01-.034c-.006-.012-.012-.021-.016-.033s-.006-.023-.012-.035c-.002-.01-.01-.021-.012-.03-.006-.011-.007-.024-.012-.037l-.018-.036-.008-.031a.543.543 0 0 1-.016-.035c-.006-.01-.006-.021-.01-.033s-.012-.022-.016-.033c-.005-.012-.006-.023-.012-.035-.004-.012-.01-.021-.014-.033-.006-.012-.008-.023-.01-.034-.004-.012-.012-.022-.016-.032-.006-.012-.007-.023-.01-.035-.006-.012-.012-.021-.016-.033-.006-.012-.006-.024-.012-.037-.002-.01-.01-.02-.014-.03-.005-.013-.006-.024-.012-.036-.003-.012-.01-.021-.015-.033-.004-.01-.006-.022-.011-.033-.003-.012-.01-.022-.016-.033a.359.359 0 0 0-.008-.035c-.006-.012-.012-.021-.016-.033-.006-.011-.006-.023-.012-.035-.004-.012-.01-.021-.014-.031l-.01-.035c-.005-.013-.012-.022-.017-.033-.005-.014-.005-.025-.01-.035-.005-.014-.013-.024-.017-.035-.004-.012-.005-.021-.01-.033-.004-.011-.01-.02-.014-.03-.005-.013-.006-.024-.012-.038-.004-.012-.012-.021-.014-.033-.006-.011-.008-.021-.012-.033-.002-.012-.01-.023-.014-.033a.107.107 0 0 1-.01-.036c-.006-.011-.012-.021-.016-.032a.108.108 0 0 1-.01-.035c-.006-.012-.012-.021-.016-.032-.006-.013-.006-.024-.012-.036l-.016-.033c-.003-.01-.004-.022-.01-.034-.003-.011-.01-.021-.015-.034-.005-.01-.007-.022-.01-.033-.007-.013-.013-.021-.015-.033-.006-.011-.007-.023-.012-.035-.004-.012-.011-.021-.014-.032-.006-.011-.006-.022-.012-.034-.004-.012-.011-.021-.014-.033l-.012-.035c-.006-.01-.008-.021-.014-.031l-.01-.037c-.005-.013-.013-.024-.017-.036z"/><path fill="#33495F" d="M212.367 81.91c-.682-1.815-6.197-1.428-12.324.869-6.125 2.296-10.539 5.631-9.857 7.449.258.688 1.207 1.057 2.621 1.129l5.109 13.629c.48.025 1.017.014 1.598-.029l-5.111-13.629c.915-.07 1.941-.225 3.043-.463l5.109 13.629c.48-.102.971-.221 1.477-.355L198.92 90.51c.93-.246 1.895-.545 2.883-.895l5.109 13.63a46.972 46.972 0 0 0 1.41-.528l-5.111-13.629a37.728 37.728 0 0 0 2.76-1.221l5.109 13.629c.469-.23.918-.465 1.346-.701l-5.109-13.631a22.958 22.958 0 0 0 2.596-1.65l5.109 13.629c.467-.348.877-.691 1.223-1.027l-5.109-13.629c1.018-.984 1.489-1.889 1.231-2.577z"/><path fill="#2A3E4F" d="M248.293 240.055a4.998 4.998 0 0 1-2.493-6.616l29.278-64.683a5 5 0 0 1 6.617-2.492 5 5 0 0 1 2.494 6.617l-29.279 64.682a5 5 0 0 1-6.617 2.492z"/><path fill="#2A3E4F" d="M291.658 238.829l-52.84-23.919a7.498 7.498 0 0 1-3.738-9.925 7.496 7.496 0 0 1 9.924-3.739l52.84 23.918a7.501 7.501 0 0 1-6.186 13.665z"/><circle fill="#33495F" cx="259.299" cy="215.726" r="19.501"/><circle fill="#ECF0F1" cx="259.299" cy="215.726" r="11.5"/></svg>