<svg xmlns="http://www.w3.org/2000/svg" width="512" height="512" viewBox="0 0 512 512"><g><radialGradient id="a" cx="256" cy="256" r="256" gradientUnits="userSpaceOnUse"><stop offset=".005" stop-color="#33495f"/><stop offset="1" stop-color="#2b3e51"/></radialGradient><circle fill="url(#a)" cx="256" cy="256" r="256"/><path fill="#D55400" d="M353 271c0 5.5 4.5 10 10 10h60c5.5 0 10-4.5 10-10v-21c0-5.5-4.5-10-10-10h-60c-5.5 0-10 4.5-10 10v21z"/><path fill="#C24C00" d="M349 279c0 5.5 4.5 10 10 10h60c5.5 0 10-4.5 10-10v-21c0-5.5-4.5-10-10-10h-60c-5.5 0-10 4.5-10 10v21z"/><path fill="#E87E04" d="M394 179H107.414C96.14 179 87 169.188 87 157.914v-4.285C87 142.354 96.14 134 107.414 134h286.234c11.274 0 20.352 8.354 20.352 19.629v69.811l-20-11.277V179z"/><path fill="#00BD9C" d="M399 208.844v-24.127c0-10.9-10.125-11.717-10.125-11.717H107.414C99.268 173 93 166.061 93 157.914v-4.285C93 145.482 99.268 139 107.414 139h286.234c8.147 0 14.352 6.482 14.352 14.629v60.227l-9-5.012z"/><path fill="#00A185" d="M406 175.057c0-.383.056-.784.026-1.161-2.624-4.121-7.139-6.896-12.378-6.896H95.824c2.709 4 6.893 6 11.59 6H393.648c8.147 0 14.352 6.316 14.352 14.463v-5.639c0-2.869 0-5.539-2-7.811v1.044z"/><path fill="#00A185" d="M406.026 174.278c.021.031-.026-.294-.026-.265v-3.467c0-8.148-6.46-14.547-14.606-14.547H93v1.914c0 .809-.278 2.086-.152 3.086h298.546c7.762.001 14.047 5.664 14.632 13.279z"/><path fill="#00A185" d="M393.648 145H95.824c-1.057 1-1.887 3-2.434 4h300.258c8.147 0 14.352 6.633 14.352 14.779v-4.512c0-8.146-6.204-14.267-14.352-14.267z"/><path fill="#D55400" d="M401 178.443V179H107.414C96.14 179 87 169.188 87 157.914v224.508C87 394.9 97.115 405 109.594 405h288.642C410.714 405 421 394.9 421 382.422v-181.5c0-11.705-9-21.328-20-22.479z"/><g fill="#E87E04"><path d="M105.956 190.271a1.694 1.694 0 0 0-1.38-1.955c-1.293-.223-2.623-.609-4.03-1.018a79.353 79.353 0 0 0-2.415-.672 1.686 1.686 0 0 0-1.465.301c-.413.32-.666.812-.666 1.336v6.98c0 .934.565 1.691 1.5 1.691s1.5-.758 1.5-1.691v-4.754c0 .02.336.039.402.059 1.434.416 3.121.848 4.6 1.104a1.695 1.695 0 0 0 1.954-1.381zM97.5 277.375c.935 0 1.5-.758 1.5-1.691v-13.4c0-.934-.565-1.691-1.5-1.691s-1.5.758-1.5 1.691v13.4c0 .933.565 1.691 1.5 1.691zM97.5 223.773c.935 0 1.5-.758 1.5-1.691v-13.398c0-.934-.565-1.691-1.5-1.691s-1.5.758-1.5 1.691v13.398c0 .934.565 1.691 1.5 1.691zM144.251 192h13.399c.935 0 1.691-.566 1.691-1.5 0-.936-.757-1.5-1.691-1.5h-13.399c-.935 0-1.692.564-1.692 1.5 0 .934.757 1.5 1.692 1.5zM117.451 192h13.399c.935 0 1.691-.566 1.691-1.5 0-.936-.757-1.5-1.691-1.5h-13.399c-.936 0-1.692.564-1.692 1.5 0 .934.757 1.5 1.692 1.5zM97.5 304.174c.935 0 1.5-.758 1.5-1.691v-13.398c0-.936-.565-1.691-1.5-1.691s-1.5.756-1.5 1.691v13.398c0 .933.565 1.691 1.5 1.691zM97.5 357.775c.935 0 1.5-.758 1.5-1.693v-13.4c0-.934-.565-1.691-1.5-1.691s-1.5.758-1.5 1.691v13.4c0 .936.565 1.693 1.5 1.693zM99 369.482c0-.934-.565-1.691-1.5-1.691s-1.5.758-1.5 1.691v12.939c0 .178.016.569.023.747.039.908.799 1.831 1.699 1.831h.074c.934 0 1.454-1.044 1.414-1.978-.005-.127-.211-.472-.211-.601v-12.938zM97.5 330.975c.935 0 1.5-.758 1.5-1.691v-13.4c0-.934-.565-1.691-1.5-1.691s-1.5.758-1.5 1.691v13.4c0 .933.565 1.691 1.5 1.691zM97.5 250.574c.935 0 1.5-.758 1.5-1.691v-13.4c0-.934-.565-1.691-1.5-1.691s-1.5.758-1.5 1.691v13.4c0 .933.565 1.691 1.5 1.691zM305.051 192h13.4c.934 0 1.691-.566 1.691-1.5 0-.936-.758-1.5-1.691-1.5h-13.4c-.935 0-1.691.564-1.691 1.5-.001.934.756 1.5 1.691 1.5zM358.65 192h13.4c.935 0 1.691-.566 1.691-1.5 0-.936-.757-1.5-1.691-1.5h-13.4c-.934 0-1.691.564-1.691 1.5 0 .934.758 1.5 1.691 1.5zM331.852 192h13.399c.935 0 1.691-.566 1.691-1.5 0-.936-.757-1.5-1.691-1.5h-13.399c-.936 0-1.692.564-1.692 1.5-.001.934.756 1.5 1.692 1.5zM171.051 192h13.4c.934 0 1.691-.566 1.691-1.5 0-.936-.758-1.5-1.691-1.5h-13.4c-.935 0-1.691.564-1.691 1.5-.001.934.756 1.5 1.691 1.5zM385.451 192h13.363c.359 0 .737-.074 1.027-.285.754-.551.904-1.54.354-2.294-.354-.482-.924-.421-1.481-.421h-13.263c-.935 0-1.691.564-1.691 1.5 0 .934.757 1.5 1.691 1.5zM278.25 192h13.4c.936 0 1.692-.566 1.692-1.5 0-.936-.757-1.5-1.692-1.5h-13.4c-.934 0-1.691.564-1.691 1.5 0 .934.757 1.5 1.691 1.5zM197.851 192h13.399c.936 0 1.692-.566 1.692-1.5 0-.936-.757-1.5-1.692-1.5h-13.399c-.935 0-1.691.564-1.691 1.5-.001.934.756 1.5 1.691 1.5zM224.65 192h13.4c.935 0 1.691-.566 1.691-1.5 0-.936-.757-1.5-1.691-1.5h-13.4c-.934 0-1.691.564-1.691 1.5 0 .934.758 1.5 1.691 1.5zM251.451 192h13.4c.934 0 1.691-.566 1.691-1.5 0-.936-.758-1.5-1.691-1.5h-13.4c-.936 0-1.692.564-1.692 1.5 0 .934.757 1.5 1.692 1.5zM171.926 393h-13.399c-.935 0-1.692.566-1.692 1.5s.758 1.5 1.692 1.5h13.399c.935 0 1.691-.566 1.691-1.5s-.757-1.5-1.691-1.5zM409 330.035c-.935 0-2 .758-2 1.691v13.4c0 .934 1.065 1.691 2 1.691s2-.758 2-1.691v-13.4c0-.933-1.065-1.691-2-1.691zM409 356.836c-.935 0-2 .758-2 1.691v13.4c0 .934 1.065 1.691 2 1.691s2-.758 2-1.691v-13.4c0-.933-1.065-1.691-2-1.691zM409.039 383.654a1.697 1.697 0 0 0-2.025 1.271c-.928 4.07-3.889 7.049-7.542 7.594a1.693 1.693 0 1 0 .498 3.345c5.042-.75 9.103-4.748 10.343-10.186a1.691 1.691 0 0 0-1.274-2.024zM409 303.234c-.935 0-2 .758-2 1.691v13.4c0 .936 1.065 1.693 2 1.693s2-.758 2-1.693v-13.4c0-.933-1.065-1.691-2-1.691zM409 276.436c-.935 0-2 .758-2 1.691v13.4c0 .934 1.065 1.691 2 1.691s2-.758 2-1.691v-13.4c0-.934-1.065-1.691-2-1.691zM410.318 197.314c-.25-.902-1.383-1.428-2.281-1.178-.899.25-1.5 1.184-1.25 2.082.239.861.213 1.77.213 2.703v10.205c0 .934 1.065 1.691 2 1.691s2-.758 2-1.691V200.92c0-1.238-.361-2.451-.682-3.606zM409 222.834c-.935 0-2 .758-2 1.693v13.4c0 .934 1.065 1.691 2 1.691s2-.758 2-1.691v-13.4c0-.935-1.065-1.693-2-1.693zM386.326 393h-13.399c-.935 0-1.692.566-1.692 1.5s.758 1.5 1.692 1.5h13.399c.935 0 1.691-.566 1.691-1.5s-.756-1.5-1.691-1.5zM409 249.635c-.935 0-2 .758-2 1.693v13.398c0 .934 1.065 1.691 2 1.691s2-.758 2-1.691v-13.398c0-.935-1.065-1.693-2-1.693zM279.127 393h-13.4c-.935 0-1.691.566-1.691 1.5s.757 1.5 1.691 1.5h13.4c.934 0 1.691-.566 1.691-1.5s-.757-1.5-1.691-1.5zM225.526 393h-13.4c-.935 0-1.691.566-1.691 1.5s.757 1.5 1.691 1.5h13.4c.935 0 1.692-.566 1.692-1.5s-.757-1.5-1.692-1.5zM359.526 393h-13.399c-.936 0-1.692.566-1.692 1.5s.757 1.5 1.692 1.5h13.399c.935 0 1.691-.566 1.691-1.5s-.756-1.5-1.691-1.5zM198.727 393h-13.4c-.934 0-1.691.566-1.691 1.5s.758 1.5 1.691 1.5h13.4c.934 0 1.691-.566 1.691-1.5s-.758-1.5-1.691-1.5zM145.127 393h-13.4c-.936 0-1.692.566-1.692 1.5s.757 1.5 1.692 1.5h13.4c.934 0 1.691-.566 1.691-1.5s-.757-1.5-1.691-1.5zM252.326 393h-13.4c-.934 0-1.691.566-1.691 1.5s.758 1.5 1.691 1.5h13.4c.935 0 1.691-.566 1.691-1.5s-.756-1.5-1.691-1.5zM332.727 393h-13.4c-.935 0-1.691.566-1.691 1.5s.757 1.5 1.691 1.5h13.4c.935 0 1.691-.566 1.691-1.5s-.757-1.5-1.691-1.5zM305.926 393h-13.398c-.936 0-1.692.566-1.692 1.5s.757 1.5 1.692 1.5h13.398c.936 0 1.692-.566 1.692-1.5s-.757-1.5-1.692-1.5zM118.326 393h-8.732c-1.293 0-2.581-.479-3.829-1.04-.853-.385-1.853-.198-2.237.653a1.694 1.694 0 0 0 .85 2.239c1.688.76 3.443 1.147 5.217 1.147h8.732c.935 0 1.691-.566 1.691-1.5s-.757-1.499-1.692-1.499z"/></g><path fill="#E87E04" d="M433 296c0 5.5-4.5 10-10 10h-99c-5.5 0-10-4.5-10-10v-26c0-5.5 4.5-10 10-10h99c5.5 0 10-3.5 10-9.5V296zM401.5 173H107.414c-.601 0-1.189-.323-1.771-.394.584.051 1.354-.052 1.952-.052-8.147 0-14.595-6.738-14.595-14.885v-4.398l-5.819-1.24.135.641-.236.284L87 153v4.67c0 11.275 9.14 21.33 20.414 21.33H401c11 1.15 20 9.975 20 21.678v-5.639c0-11.703-8.5-20.889-19.5-22.039z"/><path fill="#F59D00" d="M117 348h93v20h-93z"/><path fill="#F2C500" d="M117 355h93v21h-93z"/><path fill="#95A5A6" d="M230.529 120.179l-3.165-4.028-3.167-4.002-3.166-3.983-12.664-15.897-.795.632-72.287 57.739c-1.83 1.457-3.217 3.361-4.176 5.361h127.885l-28.465-35.822z"/><path fill="#7F8C8D" d="M224.197 112.121l3.167 3.973 3.165 4.085L258.994 156h91.346l16.436-13.216c6.554-5.225 7.642-14.917 2.416-21.472l-44.326-55.635-10.132-12.722-3.167-3.981L308.401 45l-3.166-3.974-3.166-3.974c-5.225-6.553-14.861-7.642-21.414-2.417L208.368 92.26l12.664 15.889 3.165 3.972z"/><circle fill="#F2C500" cx="317.523" cy="137.111" r="13.715"/><circle fill="#E94B35" cx="331.822" cy="125.713" r="13.715"/><g fill="#ECF0F1"><path d="M259.383 97.631l-3.803 3.031c-.548.436-1.039.627-1.47.566-.431-.059-.861-.357-1.288-.895l-7.457-9.354c-.438-.549-.633-1.037-.584-1.473.05-.432.343-.861.881-1.289l4.031-3.215a11.937 11.937 0 0 1 1.633-1.119 4.202 4.202 0 0 1 1.51-.512 3.944 3.944 0 0 1 1.312.045 3.75 3.75 0 0 1 2.228 1.37c.991 1.244 1.096 2.65.311 4.219 2.052-.781 3.676-.422 4.876 1.086.555.693.877 1.463.964 2.305a4.1 4.1 0 0 1-.459 2.385c-.252.459-.6.92-1.04 1.377-.44.457-.99.949-1.645 1.473zm-11.219-8.313l2.564 3.219 2.308-1.842c.628-.5 1.065-.947 1.313-1.338.248-.393.328-.826.244-1.305a1.944 1.944 0 0 0-.426-.967c-.5-.629-1.055-.867-1.668-.719-.61.15-1.373.592-2.291 1.322l-2.044 1.63zm6.628 2.936l-2.623 2.092 2.896 3.631 2.707-2.158c1.703-1.357 2.066-2.65 1.088-3.879-.502-.627-1.086-.906-1.753-.838s-1.439.453-2.315 1.152zM272.747 84.672l-1.838-1.088-5.058 4.033.676 2.068c.265.807.401 1.385.411 1.732.01.35-.173.672-.546.969a1.513 1.513 0 0 1-1.117.324c-.428-.039-.76-.205-.995-.498a2.244 2.244 0 0 1-.333-.596 13.043 13.043 0 0 1-.323-.979l-3.259-10.617-.339-1.096a5.39 5.39 0 0 1-.239-1.135 2.134 2.134 0 0 1 .152-.975c.129-.32.367-.619.711-.895.351-.279.698-.447 1.039-.5.339-.053.666-.033.977.059.312.096.612.223.903.385.29.16.673.381 1.146.662l9.651 5.438c.741.408 1.224.752 1.444 1.029.229.289.32.648.271 1.078a1.511 1.511 0 0 1-.582 1.055c-.198.158-.396.26-.594.301a1.317 1.317 0 0 1-.586-.004c-.195-.045-.447-.148-.758-.312s-.581-.309-.814-.438zm-7.744.523l3.718-2.963-5.969-3.641 2.251 6.604zM272.812 68.697l10.691 3.471-5.9-7.4c-.382-.48-.566-.924-.552-1.33.016-.404.197-.748.548-1.027.361-.289.744-.395 1.146-.322.399.074.792.352 1.176.834l7.801 9.783c.87 1.094.854 2-.052 2.721-.228.18-.456.311-.688.389a2.061 2.061 0 0 1-.757.1 3.989 3.989 0 0 1-.837-.146 44.007 44.007 0 0 1-.871-.258l-10.506-3.479 5.811 7.289c.38.477.557.924.529 1.342-.025.422-.212.768-.557 1.043-.357.285-.74.391-1.152.312-.41-.074-.803-.344-1.179-.814l-7.651-9.602c-.325-.406-.535-.762-.629-1.064-.096-.342-.084-.691.037-1.051s.324-.654.613-.885c.227-.18.449-.297.67-.355.219-.053.439-.066.66-.039.222.025.476.09.759.186.287.095.583.197.89.302zM285.285 58.785l3.478 4.361.835-9.107c.039-.438.096-.783.168-1.035.07-.25.246-.486.523-.709.361-.287.739-.414 1.133-.383.392.033.71.205.955.512.292.365.393.883.303 1.547l-.75 5.346 7.562 2.244a8.24 8.24 0 0 1 1.295.473c.334.166.601.371.799.619.221.279.305.605.248.982-.055.379-.27.715-.643 1.012-.352.281-.696.436-1.037.459a2.453 2.453 0 0 1-1.037-.15c-.351-.127-.667-.248-.949-.354l-6.631-2.209-.487 3.621 2.05 2.572c.416.521.604.998.566 1.441-.035.441-.241.811-.615 1.107a1.568 1.568 0 0 1-.754.326 1.506 1.506 0 0 1-.824-.094 1.896 1.896 0 0 1-.583-.438 14.155 14.155 0 0 1-.749-.887l-7.375-9.252c-.406-.508-.6-.979-.579-1.412.021-.432.224-.801.608-1.109.379-.303.786-.422 1.222-.355.435.064.858.355 1.268.872z"/></g><circle fill="#F2C500" cx="340.152" cy="282.779" r="16.525"/><path fill="#F59D00" d="M340.152 295.805c-7.183 0-13.025-5.843-13.025-13.025s5.843-13.025 13.025-13.025 13.025 5.843 13.025 13.025-5.842 13.025-13.025 13.025zm0-23.051c-5.528 0-10.025 4.497-10.025 10.025s4.497 10.025 10.025 10.025 10.025-4.497 10.025-10.025-4.496-10.025-10.025-10.025z"/></g></svg>