<svg xmlns="http://www.w3.org/2000/svg" width="512" height="512" viewBox="0 0 512 512"><g><radialGradient id="a" cx="256" cy="256" r="256" gradientUnits="userSpaceOnUse"><stop offset="0" stop-color="#2a93d8"/><stop offset="1" stop-color="#227fbb"/></radialGradient><circle fill="url(#a)" cx="256" cy="256" r="256"/><path fill="#BDC3C7" d="M433 365.201c0 11.047-7.954 20.799-19 20.799H99c-11.046 0-21-9.752-21-20.799v-222C78 132.156 87.954 124 99 124h315c11.046 0 19 8.156 19 19.201v222z"/><path fill="#FFF" d="M416 354c0 5.523-4.477 10-10 10H104c-5.523 0-10-4.477-10-10V182c0-5.523 4.477-10 10-10h302c5.523 0 10 4.477 10 10v172z"/><circle fill="#FFF" cx="107.03" cy="147.869" r="9.666"/><circle fill="#EE483C" cx="107.03" cy="147.869" r="9.666"/><circle fill="#F4C342" cx="137.03" cy="147.869" r="9.666"/><circle fill="#00CA77" cx="167.03" cy="147.869" r="9.666"/><path fill="#BDC3C7" d="M288.716 265.08c-7.901-8.45-18.357-12.735-31.079-12.735-.206 0-.409.012-.609.03a6.45 6.45 0 0 0-.609-.03c-12.723 0-23.179 4.285-31.08 12.735-17.461 18.68-15.487 51.154-15.395 52.527a6.543 6.543 0 0 0 6.964 6.09 6.553 6.553 0 0 0 6.102-6.961c-.019-.281-1.66-28.252 11.921-42.741 5.397-5.757 12.425-8.555 21.487-8.555.206 0 .408-.013.609-.031.2.019.403.031.609.031 9.062 0 16.089 2.798 21.486 8.555 13.581 14.489 11.939 42.46 11.921 42.741a6.548 6.548 0 0 0 13.067.872c.093-1.374 2.068-33.848-15.394-52.528z"/><path fill="#BDC3C7" d="M288.716 265.08c-7.901-8.45-18.357-12.735-31.079-12.735-.206 0-.409.012-.609.03a6.45 6.45 0 0 0-.609-.03c-12.723 0-23.179 4.285-31.08 12.735-17.461 18.68-15.487 51.154-15.395 52.527a6.543 6.543 0 0 0 6.964 6.09 6.553 6.553 0 0 0 6.102-6.961c-.019-.281-1.66-28.252 11.921-42.741 5.397-5.757 12.425-8.555 21.487-8.555.206 0 .408-.013.609-.031.2.019.403.031.609.031 9.062 0 16.089 2.798 21.486 8.555 13.581 14.489 11.939 42.46 11.921 42.741a6.548 6.548 0 0 0 13.067.872c.093-1.374 2.068-33.848-15.394-52.528z"/><g opacity=".4" fill="#2A3E4F"><path d="M209.943 318.108c.115 1.697.868 2.892 2.007 3.892H221c1.348-1 2.14-2.755 2.01-4.763-.006-.085-.157-3.237.001-6.237h-13.118c-.149 4 .025 6.724.05 7.108zM304.162 311h-13.119c.158 3 .007 6.152.001 6.237-.133 2.008.656 3.763 2.003 4.763h9.06c1.138-1 1.89-2.195 2.005-3.892.025-.384.199-3.108.05-7.108z"/></g><path fill="#F4C342" d="M324 439.314c0 6.453-5.231 11.686-11.686 11.686H197.686c-6.454 0-11.686-5.232-11.686-11.686v-99.629c0-6.453 5.231-11.686 11.686-11.686h114.629c6.454 0 11.686 5.232 11.686 11.686v99.629z"/><g fill="#F89B36"><path d="M186 342h138v4H186zM186 360h138v5H186zM186 379h138v4H186zM186 397h138v4H186zM186 415h138v4H186zM186 434h138v4H186z"/></g><path fill="#BDC3C7" d="M230.906 325.115a2.627 2.627 0 0 1-2.619 2.619h-26.191a2.626 2.626 0 0 1-2.618-2.619v-6.548a2.626 2.626 0 0 1 2.618-2.618h26.191a2.626 2.626 0 0 1 2.619 2.618v6.548zM313.408 325.115a2.627 2.627 0 0 1-2.619 2.619h-26.191a2.626 2.626 0 0 1-2.618-2.619v-6.548a2.626 2.626 0 0 1 2.618-2.618h26.191a2.626 2.626 0 0 1 2.619 2.618v6.548z"/></g></svg>